<?xml version="1.0" encoding="UTF-8"?><svg xmlns="http://www.w3.org/2000/svg" xmlns:xlink="http://www.w3.org/1999/xlink" contentScriptType="text/ecmascript" width="375" zoomAndPan="magnify" contentStyleType="text/css" viewBox="0 0 375 374.999991" height="374.999991" preserveAspectRatio="xMidYMid meet" version="1.0"><path fill="rgb(20.779419%, 71.759033%, 16.079712%)" d="M 96.792969 287.21875 C 100.921875 278.4375 105.488281 269.835938 110.460938 261.476562 C 120.429688 244.746094 132.050781 228.960938 145.316406 214.644531 C 158.589844 200.332031 173.539062 187.519531 189.988281 176.863281 C 206.433594 166.203125 224.347656 157.734375 243.175781 151.824219 C 243.960938 151.578125 244.421875 150.757812 244.207031 149.957031 C 243.996094 149.136719 243.148438 148.640625 242.320312 148.863281 L 242.304688 148.871094 C 222.996094 153.976562 204.300781 161.773438 186.960938 171.933594 C 169.597656 182.085938 153.597656 194.574219 139.242188 208.71875 C 124.875 222.875 112.113281 238.652344 101 255.515625 C 95.433594 263.945312 90.285156 272.652344 85.566406 281.613281 C 84.636719 283.394531 83.730469 285.191406 82.828125 286.992188 C 85.96875 290.28125 89.261719 293.4375 92.691406 296.429688 C 94.003906 293.339844 95.355469 290.261719 96.792969 287.21875 " fill-opacity="1" fill-rule="nonzero"/><path fill="rgb(20.779419%, 71.759033%, 16.079712%)" d="M 187.5 43.085938 C 107.746094 43.085938 43.089844 107.738281 43.089844 187.496094 C 43.089844 222.84375 55.800781 255.21875 76.882812 280.328125 C 74.726562 260.660156 75.648438 235.09375 87.496094 210.160156 C 104.210938 175 138.535156 149.246094 189.53125 133.617188 C 194.890625 131.96875 201.25 130.699219 206.761719 129.65625 C 209.003906 129.242188 211.285156 128.828125 213.605469 128.414062 C 216.015625 127.972656 218.464844 127.53125 220.933594 127.074219 C 240.566406 123.386719 262.035156 118.296875 276.585938 104.726562 C 278.492188 122.25 280.5 156.300781 273.261719 191.683594 C 259.574219 258.542969 220.847656 298.40625 158.160156 310.164062 C 145.582031 312.519531 131.949219 313.71875 117.394531 313.761719 C 138.15625 325.316406 162.058594 331.902344 187.5 331.902344 C 267.253906 331.902344 331.910156 267.25 331.910156 187.496094 C 331.910156 107.734375 267.253906 43.085938 187.5 43.085938 " fill-opacity="1" fill-rule="nonzero"/></svg>