<?xml version="1.0" encoding="UTF-8"?><svg xmlns="http://www.w3.org/2000/svg" xmlns:xlink="http://www.w3.org/1999/xlink" contentScriptType="text/ecmascript" width="375" zoomAndPan="magnify" contentStyleType="text/css" viewBox="0 0 375 374.999991" height="374.999991" preserveAspectRatio="xMidYMid meet" version="1.0"><defs><clipPath id="clip-0"><path d="M 214 56.589844 L 346 56.589844 L 346 166 L 214 166 Z M 214 56.589844 " clip-rule="nonzero"/></clipPath></defs><path fill="rgb(94.119263%, 30.589294%, 33.729553%)" d="M 274.609375 128.789062 C 279.234375 127.945312 284.230469 128.132812 288.9375 127.6875 C 298.785156 126.769531 308.542969 125.230469 318.382812 124.199219 C 331.753906 122.796875 345.152344 121.855469 358.5625 121.054688 C 361.832031 120.859375 365.105469 120.609375 368.363281 120.429688 C 369.179688 120.382812 371.222656 119.910156 372.007812 120.429688 C 375.023438 122.402344 373.589844 129.808594 373.03125 132.582031 C 370.710938 144.109375 365.957031 156.105469 356.636719 163.777344 C 352.339844 167.320312 346.835938 169.34375 341.519531 170.78125 C 323.480469 175.667969 300.421875 168.84375 287.566406 155.386719 C 281.132812 148.65625 277.617188 140.082031 275.109375 131.261719 " fill-opacity="1" fill-rule="evenodd"/><path fill="rgb(96.078491%, 86.268616%, 74.119568%)" d="M 304.417969 137.445312 C 304.210938 138.863281 303.828125 140.234375 303.265625 141.554688 C 303.011719 142.167969 302.714844 142.761719 302.367188 143.332031 C 301.613281 144.5625 298.734375 147.101562 299.199219 143.648438 C 299.46875 142.300781 300.085938 141.136719 301.054688 140.160156 C 302.019531 139.074219 303.058594 138.070312 304.171875 137.144531 Z M 352.507812 133.824219 C 353.140625 134.726562 353.859375 135.554688 354.65625 136.3125 C 355.582031 137.171875 357.316406 138.484375 358.71875 138.492188 C 359.097656 138.492188 359.089844 137.640625 359.058594 137.453125 C 358.832031 136.488281 358.328125 135.699219 357.550781 135.085938 C 356.269531 133.921875 354.632812 133.492188 353.027344 132.945312 Z M 316.695312 142.34375 C 316.828125 143.679688 316.828125 145.011719 316.695312 146.347656 C 316.609375 147.167969 316.433594 147.96875 316.160156 148.746094 C 315.859375 149.679688 314.101562 153.003906 313.347656 150.375 C 313.238281 149.988281 313.191406 149.597656 313.210938 149.199219 C 313.332031 146.882812 314.132812 144.828125 315.609375 143.039062 Z M 340.871094 141.589844 C 341.242188 143.371094 341.925781 145.023438 342.921875 146.542969 C 343.226562 147.082031 343.582031 147.582031 343.984375 148.050781 C 344.738281 148.875 346.609375 150.125 346.246094 147.976562 C 345.929688 146.65625 345.332031 145.480469 344.445312 144.449219 C 343.652344 143.398438 342.6875 142.539062 341.820312 141.5625 Z M 328.804688 143.195312 C 329.792969 144.765625 330.492188 146.449219 330.910156 148.253906 C 331.085938 148.949219 331.183594 149.65625 331.195312 150.375 C 331.195312 151.398438 330.230469 155.054688 328.746094 152.863281 C 327.933594 151.386719 327.640625 149.816406 327.871094 148.148438 C 327.984375 146.792969 328.34375 145.480469 328.585938 144.140625 Z M 328.804688 143.195312 " fill-opacity="1" fill-rule="evenodd"/><path fill="rgb(96.078491%, 86.268616%, 74.119568%)" d="M 357.6875 101.617188 L 349.738281 93.113281 C 349.738281 93.113281 344.054688 122.585938 305.25 135.566406 C 281.40625 147.507812 251.933594 126.753906 251.933594 126.753906 L 251.136719 137.90625 C 251.136719 137.90625 278.734375 154.601562 308.527344 143.40625 C 338.320312 132.210938 357.6875 101.617188 357.6875 101.617188 Z M 357.6875 101.617188 " fill-opacity="1" fill-rule="evenodd"/><path fill="rgb(65.879822%, 72.938538%, 19.219971%)" d="M 138.886719 197.96875 C 130.546875 192.15625 121.316406 197.847656 112.539062 199.777344 C 98.59375 202.84375 82.828125 204.300781 70.113281 196.21875 C 62.699219 191.53125 59.203125 183.011719 51.878906 178.304688 C 44.453125 173.535156 34.308594 173.878906 26.363281 169.808594 C 14.628906 163.777344 4.449219 151.664062 1.523438 138.726562 C 0.015625 132.015625 0.113281 124.945312 4.734375 119.410156 C 8.355469 115.074219 14.019531 113.582031 19.46875 113.3125 C 22.832031 113.144531 26.355469 113.71875 29.574219 112.476562 C 38.238281 109.128906 44.65625 101.347656 54.261719 99.929688 C 67.300781 97.984375 81.921875 103.488281 88.589844 115.234375 C 93.648438 124.160156 94.621094 134.359375 101.40625 142.496094 C 104.425781 146.070312 108.359375 149.5 113.027344 150.480469 C 117.882812 151.503906 123.035156 150.828125 127.453125 153.496094 C 138.921875 160.410156 137.453125 173.238281 138.878906 184.539062 C 139.324219 188.070312 140.957031 192.9375 140.273438 196.503906 " fill-opacity="1" fill-rule="evenodd"/><path fill="rgb(49.01886%, 57.249451%, 10.978699%)" d="M 138.085938 198.660156 C 135.496094 195.128906 132.226562 192.40625 128.28125 190.496094 C 119.816406 186.230469 106.136719 187.332031 97.078125 188.988281 C 90.421875 190.210938 85.339844 189.09375 78.65625 188.167969 C 76.46875 187.867188 74.335938 187.980469 76.679688 187.917969 C 83.253906 187.78125 89.75 187.011719 96.175781 185.609375 C 98.097656 185.179688 100.027344 184.699219 101.972656 184.367188 C 102.652344 184.246094 103.332031 184.117188 104.007812 184.035156 C 104.304688 184.035156 104.929688 184.246094 104.890625 183.953125 C 104.679688 182.203125 99.417969 179.128906 98.140625 178.035156 C 95.1875 175.5 92.515625 171.695312 88.746094 170.292969 C 85.414062 169.054688 81.53125 169.773438 78.0625 169.839844 C 74.042969 169.898438 70.089844 169.410156 66.207031 168.378906 C 61.894531 167.253906 57.785156 165.21875 53.628906 163.597656 C 52.347656 163.09375 51.074219 162.570312 49.769531 162.089844 C 49.226562 161.894531 48.675781 161.710938 48.132812 161.546875 C 47.945312 161.492188 47.378906 161.320312 47.582031 161.402344 C 50.128906 162.738281 53.402344 162.789062 56.1875 162.910156 C 61.035156 163.167969 65.859375 163.558594 70.695312 163.945312 C 73.460938 164.164062 76.175781 164.820312 78.988281 164.855469 C 79.789062 164.855469 80.574219 164.855469 81.371094 164.902344 C 81.816406 164.902344 83.089844 165.234375 82.722656 164.96875 C 78.953125 162.210938 74.003906 160.640625 69.78125 158.695312 C 59.882812 154.179688 49.617188 150.410156 39.816406 145.78125 C 34.507812 143.425781 29.855469 140.144531 25.855469 135.9375 C 24.710938 134.746094 23.542969 133.5625 22.296875 132.46875 C 21.832031 132.070312 21.363281 131.714844 20.871094 131.332031 C 20.660156 131.179688 19.996094 130.921875 20.246094 130.871094 C 21.167969 130.683594 22.9375 131.421875 23.882812 131.699219 C 26.898438 132.574219 29.867188 133.382812 32.832031 134.316406 C 44.714844 138.085938 55.589844 144.230469 67.164062 148.820312 C 71.511719 150.421875 75.746094 152.273438 79.871094 154.378906 C 81.160156 155.082031 82.445312 155.789062 83.730469 156.503906 L 85.058594 157.257812 C 85.339844 157.40625 85.941406 158.011719 85.902344 157.695312 C 85.480469 153.652344 81.960938 150.214844 79.71875 147.140625 C 76.707031 142.960938 74.265625 138.472656 72.390625 133.675781 C 71.261719 130.71875 70.882812 127.839844 70.363281 124.742188 C 70.1875 123.648438 69.953125 122.570312 69.660156 121.507812 C 69.511719 120.980469 68.636719 119.597656 69.050781 120 C 70.285156 121.128906 71.238281 123.339844 72.15625 124.769531 C 75.429688 129.890625 77.746094 135.613281 81.054688 140.65625 C 85.300781 147.140625 92.246094 151.503906 97.351562 157.242188 C 99.695312 160.074219 102.273438 162.679688 105.078125 165.050781 C 105.722656 165.558594 106.363281 166.070312 107.019531 166.558594 C 107.304688 166.765625 107.773438 167.488281 107.894531 167.164062 C 109.167969 164.003906 106.300781 157.289062 105.222656 154.277344 C 104.855469 153.246094 104.429688 152.242188 103.941406 151.261719 C 103.664062 150.699219 102.433594 149.753906 103.058594 149.582031 C 103.683594 149.410156 104.226562 150.53125 104.761719 151.089844 C 106.339844 152.734375 107.777344 154.492188 109.070312 156.367188 C 114.308594 163.597656 118.578125 172.199219 125.214844 178.304688 C 128.050781 180.914062 131.84375 182.203125 134.5625 184.925781 C 139.375 189.726562 139.011719 190.730469 144.5625 194.921875 C 146.75 196.574219 141.773438 203.75 138.085938 198.660156 Z M 138.085938 198.660156 " fill-opacity="1" fill-rule="evenodd"/><path fill="rgb(96.078491%, 86.268616%, 74.119568%)" d="M 117.953125 170.765625 L 125.023438 161.464844 C 125.023438 161.464844 95.003906 160.898438 75.597656 124.890625 C 59.761719 103.4375 75.171875 70.867188 75.171875 70.867188 L 64.019531 72.003906 C 64.019531 72.003906 52.273438 102.027344 68.394531 129.46875 C 84.515625 156.910156 117.953125 170.765625 117.953125 170.765625 Z M 117.953125 170.765625 " fill-opacity="1" fill-rule="evenodd"/><path fill="rgb(94.119263%, 30.589294%, 33.729553%)" d="M 90.390625 69.058594 C 93.875 72.203125 96.777344 76.289062 99.96875 79.726562 C 106.695312 86.96875 113.863281 93.777344 120.675781 100.949219 C 129.933594 110.695312 138.839844 120.746094 147.648438 130.894531 C 149.796875 133.367188 151.992188 135.808594 154.117188 138.296875 C 154.652344 138.914062 156.28125 140.25 156.378906 141.183594 C 156.644531 144.773438 149.902344 148.140625 147.332031 149.394531 C 136.773438 154.574219 124.367188 158.109375 112.605469 155.425781 C 107.175781 154.171875 102.214844 151.039062 97.839844 147.699219 C 82.976562 136.390625 74.34375 113.9375 77.195312 95.542969 C 78.621094 86.34375 83.273438 78.332031 88.722656 70.988281 " fill-opacity="1" fill-rule="evenodd"/><path fill="rgb(96.078491%, 86.268616%, 74.119568%)" d="M 101.648438 97.960938 C 100.398438 98.664062 99.078125 99.195312 97.691406 99.554688 C 97.046875 99.722656 96.390625 99.84375 95.730469 99.921875 C 94.304688 100.089844 90.535156 99.335938 93.550781 97.609375 C 94.78125 96.992188 96.082031 96.773438 97.449219 96.953125 C 98.882812 97.066406 100.304688 97.28125 101.710938 97.601562 Z M 133.816406 133.886719 C 133.492188 134.9375 133.269531 136.011719 133.152344 137.105469 C 133.035156 138.363281 133.046875 140.535156 133.90625 141.628906 C 134.140625 141.929688 134.8125 141.402344 134.941406 141.265625 C 135.570312 140.507812 135.898438 139.636719 135.921875 138.652344 C 136.058594 136.925781 135.410156 135.363281 134.867188 133.773438 Z M 105.285156 110.671875 C 104.308594 111.59375 103.25 112.402344 102.109375 113.109375 C 101.398438 113.550781 100.644531 113.898438 99.847656 114.148438 C 98.925781 114.480469 95.214844 115.105469 96.832031 112.914062 C 97.066406 112.585938 97.351562 112.3125 97.683594 112.082031 C 99.59375 110.769531 101.707031 110.15625 104.023438 110.234375 Z M 120.582031 129.398438 C 119.398438 130.78125 118.507812 132.328125 117.90625 134.042969 C 117.667969 134.613281 117.488281 135.199219 117.363281 135.800781 C 117.175781 136.910156 117.3125 139.140625 118.8125 137.566406 C 119.671875 136.511719 120.238281 135.320312 120.515625 133.992188 C 120.863281 132.71875 120.960938 131.4375 121.210938 130.148438 Z M 111.964844 120.804688 C 111.304688 122.539062 110.382812 124.113281 109.191406 125.53125 C 108.746094 126.097656 108.246094 126.597656 107.679688 127.039062 C 106.867188 127.667969 103.382812 129.128906 104.210938 126.609375 C 104.878906 125.046875 105.949219 123.847656 107.425781 123.007812 C 108.570312 122.253906 109.839844 121.753906 111.042969 121.128906 Z M 111.964844 120.804688 " fill-opacity="1" fill-rule="evenodd"/><path fill="rgb(65.879822%, 72.938538%, 19.219971%)" d="M 253.082031 158.191406 C 244.289062 153.09375 235.558594 159.535156 226.976562 162.1875 C 213.34375 166.402344 197.742188 169.132812 184.402344 162.1875 C 176.625 158.125 172.433594 149.929688 164.792969 145.859375 C 156.996094 141.710938 146.914062 142.902344 138.667969 139.503906 C 126.464844 134.480469 115.289062 123.242188 111.324219 110.597656 C 109.257812 104.039062 108.773438 96.976562 112.921875 91.078125 C 116.171875 86.457031 121.683594 84.496094 127.097656 83.773438 C 130.433594 83.335938 133.992188 83.617188 137.097656 82.109375 C 145.421875 78.035156 151.207031 69.742188 160.625 67.527344 C 173.445312 64.511719 188.488281 68.777344 196.066406 79.929688 C 201.859375 88.402344 203.691406 98.492188 211.148438 106.027344 C 214.421875 109.339844 218.652344 112.429688 223.386719 113.027344 C 228.308594 113.644531 233.394531 112.527344 238.015625 114.820312 C 250.019531 120.753906 249.621094 133.667969 251.980469 144.800781 C 252.734375 148.285156 254.75 153.003906 254.363281 156.617188 " fill-opacity="1" fill-rule="evenodd"/><path fill="rgb(49.01886%, 57.249451%, 10.978699%)" d="M 252.34375 158.9375 C 249.472656 155.632812 245.992188 153.191406 241.90625 151.617188 C 233.113281 148.066406 219.578125 150.296875 210.6875 152.695312 C 204.148438 154.46875 199 153.773438 192.257812 153.449219 C 190.054688 153.328125 187.9375 153.617188 190.265625 153.359375 C 196.804688 152.675781 203.21875 151.367188 209.503906 149.4375 C 211.382812 148.851562 213.273438 148.210938 215.183594 147.71875 C 215.84375 147.546875 216.507812 147.359375 217.179688 147.222656 C 217.472656 147.167969 218.117188 147.359375 218.054688 147.0625 C 217.699219 145.34375 212.195312 142.714844 210.839844 141.734375 C 207.679688 139.472656 204.699219 135.882812 200.824219 134.789062 C 197.402344 133.832031 193.59375 134.875 190.148438 135.226562 C 186.164062 135.621094 182.203125 135.472656 178.261719 134.777344 C 173.867188 134.023438 169.597656 132.332031 165.332031 131.058594 C 164.003906 130.667969 162.691406 130.246094 161.347656 129.890625 C 160.796875 129.738281 160.234375 129.605469 159.675781 129.484375 C 159.484375 129.484375 158.921875 129.316406 159.117188 129.386719 C 161.761719 130.5 165.027344 130.28125 167.820312 130.207031 C 172.667969 130.0625 177.515625 130.046875 182.363281 130.035156 C 185.140625 130.035156 187.890625 130.449219 190.660156 130.253906 C 191.453125 130.191406 192.234375 130.125 193.035156 130.101562 C 193.488281 130.101562 194.777344 130.289062 194.390625 130.054688 C 190.386719 127.621094 185.34375 126.46875 180.96875 124.882812 C 170.738281 121.160156 160.210938 118.242188 150.054688 114.449219 C 144.578125 112.542969 139.675781 109.660156 135.347656 105.804688 C 134.105469 104.710938 132.84375 103.625 131.511719 102.644531 C 131.019531 102.28125 130.523438 101.941406 130.003906 101.625 C 129.785156 101.492188 129.097656 101.292969 129.347656 101.21875 C 130.25 100.957031 132.074219 101.542969 133.035156 101.738281 C 136.050781 102.371094 139.140625 102.921875 142.171875 103.609375 C 154.328125 106.375 165.675781 111.59375 177.613281 115.210938 C 182.039062 116.4375 186.378906 117.917969 190.628906 119.660156 C 191.980469 120.246094 193.320312 120.851562 194.65625 121.453125 L 196.035156 122.078125 C 196.332031 122.207031 196.980469 122.757812 196.925781 122.441406 C 196.171875 118.453125 192.402344 115.316406 189.875 112.40625 C 186.535156 108.507812 183.726562 104.253906 181.453125 99.652344 C 180.078125 96.800781 179.46875 93.960938 178.699219 90.914062 C 178.433594 89.839844 178.109375 88.785156 177.726562 87.746094 C 177.53125 87.234375 176.550781 85.929688 176.972656 86.238281 C 178.308594 87.257812 179.429688 89.382812 180.464844 90.761719 C 184.152344 95.59375 186.933594 101.097656 190.652344 105.839844 C 195.425781 111.949219 202.71875 115.71875 208.273438 121.046875 C 210.84375 123.675781 213.628906 126.058594 216.628906 128.1875 C 217.308594 128.640625 217.988281 129.097656 218.679688 129.519531 C 218.984375 129.703125 219.496094 130.378906 219.601562 130.042969 C 220.609375 126.792969 217.203125 120.332031 215.875 117.429688 C 215.429688 116.433594 214.925781 115.46875 214.367188 114.535156 C 214.042969 113.992188 212.769531 113.191406 213.347656 112.933594 C 213.929688 112.679688 214.59375 113.785156 215.175781 114.269531 C 216.886719 115.785156 218.460938 117.433594 219.902344 119.207031 C 225.722656 125.992188 230.699219 134.203125 237.820312 139.730469 C 240.835938 142.089844 244.75 143.0625 247.683594 145.550781 C 252.878906 149.929688 252.597656 150.953125 258.480469 154.671875 C 260.804688 156.148438 256.4375 163.710938 252.34375 158.9375 Z M 252.34375 158.9375 " fill-opacity="1" fill-rule="evenodd"/><path fill="rgb(94.119263%, 30.589294%, 33.729553%)" d="M 281.441406 114.398438 C 277.234375 116.476562 272.394531 117.675781 267.996094 119.382812 C 258.78125 122.96875 249.816406 127.132812 240.648438 130.808594 C 228.175781 135.832031 215.550781 140.421875 202.875 144.871094 C 199.785156 145.964844 196.707031 147.132812 193.609375 148.164062 C 192.855469 148.4375 191.007812 149.460938 190.109375 149.183594 C 186.671875 148.105469 186.015625 140.597656 185.789062 137.769531 C 184.84375 126.054688 186.121094 113.214844 192.972656 103.269531 C 196.132812 98.6875 200.878906 95.234375 205.589844 92.382812 C 221.585938 82.734375 245.632812 82.960938 261.691406 92.382812 C 269.722656 97.089844 275.460938 104.363281 280.296875 112.128906 " fill-opacity="1" fill-rule="evenodd"/><path fill="rgb(96.078491%, 86.268616%, 74.119568%)" d="M 249.652344 114.269531 C 249.464844 112.847656 249.464844 111.425781 249.652344 110.003906 C 249.726562 109.339844 249.851562 108.6875 250.027344 108.042969 C 250.398438 106.65625 252.484375 103.429688 252.984375 106.867188 C 253.101562 108.238281 252.824219 109.527344 252.152344 110.734375 C 251.527344 112.03125 250.804688 113.269531 249.988281 114.457031 Z M 204.40625 130.96875 C 203.550781 130.28125 202.632812 129.679688 201.660156 129.167969 C 200.53125 128.59375 198.507812 127.808594 197.136719 128.195312 C 196.773438 128.300781 197.015625 129.113281 197.136719 129.289062 C 197.609375 130.148438 198.300781 130.769531 199.203125 131.15625 C 200.765625 131.910156 202.453125 131.910156 204.136719 131.972656 Z M 236.5 112.941406 C 236.007812 111.695312 235.640625 110.414062 235.398438 109.097656 C 235.257812 108.285156 235.207031 107.464844 235.253906 106.640625 C 235.292969 105.660156 236.070312 101.980469 237.519531 104.304688 C 237.722656 104.644531 237.875 105.007812 237.96875 105.394531 C 238.488281 107.648438 238.292969 109.835938 237.382812 111.960938 Z M 213.457031 120.253906 C 212.609375 118.648438 211.5 117.246094 210.128906 116.054688 C 209.695312 115.652344 209.226562 115.292969 208.726562 114.976562 C 207.761719 114.398438 205.636719 113.695312 206.554688 115.671875 C 207.214844 116.859375 208.113281 117.824219 209.246094 118.574219 C 210.3125 119.328125 211.472656 119.921875 212.574219 120.632812 Z M 224.621094 115.398438 C 223.242188 114.164062 222.105469 112.734375 221.214844 111.109375 C 220.851562 110.492188 220.5625 109.835938 220.347656 109.152344 C 220.074219 108.171875 219.992188 104.386719 222.027344 106.089844 C 223.246094 107.300781 223.96875 108.753906 224.199219 110.453125 C 224.464844 111.796875 224.472656 113.152344 224.617188 114.511719 Z M 224.621094 115.398438 " fill-opacity="1" fill-rule="evenodd"/><path fill="rgb(65.879822%, 72.938538%, 19.219971%)" d="M 159.253906 153.8125 C 168.859375 157.105469 176.175781 149.101562 184.085938 144.824219 C 196.640625 138.039062 211.417969 132.339844 225.851562 136.59375 C 234.265625 139.074219 239.976562 146.296875 248.285156 148.804688 C 256.730469 151.355469 266.382812 148.234375 275.152344 149.964844 C 288.09375 152.53125 301.207031 161.394531 307.578125 173.019531 C 310.882812 179.050781 312.722656 185.890625 309.839844 192.480469 C 307.578125 197.644531 302.519531 200.636719 297.34375 202.394531 C 294.164062 203.480469 290.613281 203.902344 287.867188 205.964844 C 280.453125 211.574219 276.382812 220.824219 267.574219 224.8125 C 255.570312 230.257812 240 228.992188 230.363281 219.535156 C 223.039062 212.351562 219.285156 202.816406 210.523438 196.859375 C 206.667969 194.242188 201.917969 192.035156 197.152344 192.375 C 192.207031 192.71875 187.441406 194.792969 182.457031 193.453125 C 169.53125 189.953125 167.375 177.207031 162.941406 166.742188 C 161.542969 163.46875 158.632812 159.203125 158.308594 155.613281 " fill-opacity="1" fill-rule="evenodd"/><path fill="rgb(49.01886%, 57.249451%, 10.978699%)" d="M 159.824219 152.9375 C 163.292969 155.625 167.191406 157.339844 171.511719 158.085938 C 180.828125 159.859375 193.675781 155.070312 201.933594 150.96875 C 208.003906 147.953125 213.191406 147.644531 219.871094 146.703125 C 222.050781 146.394531 224.074219 145.691406 221.839844 146.402344 C 215.5625 148.324219 209.53125 150.839844 203.742188 153.941406 C 202.007812 154.882812 200.28125 155.878906 198.5 156.730469 C 197.882812 157.03125 197.273438 157.347656 196.632812 157.605469 C 196.359375 157.71875 195.695312 157.65625 195.808594 157.929688 C 196.496094 159.550781 202.40625 161.0625 203.921875 161.765625 C 207.46875 163.386719 211.078125 166.289062 215.089844 166.628906 C 218.636719 166.90625 222.171875 165.121094 225.488281 164.125 C 229.320312 162.96875 233.230469 162.351562 237.230469 162.269531 C 241.695312 162.164062 246.203125 162.988281 250.644531 163.410156 C 252.019531 163.535156 253.390625 163.695312 254.769531 163.785156 C 255.34375 163.824219 255.925781 163.847656 256.488281 163.855469 C 256.6875 163.855469 257.242188 163.855469 257.054688 163.855469 C 254.242188 163.273438 251.082031 164.117188 248.359375 164.734375 C 243.632812 165.8125 238.882812 166.769531 234.132812 167.75 C 231.410156 168.292969 228.621094 168.414062 225.941406 169.144531 C 225.1875 169.347656 224.433594 169.574219 223.644531 169.757812 C 223.199219 169.855469 221.894531 169.90625 222.316406 170.058594 C 226.710938 171.671875 231.890625 171.824219 236.492188 172.53125 C 247.253906 174.195312 258.140625 175.027344 268.878906 176.761719 C 274.617188 177.574219 279.984375 179.449219 284.980469 182.390625 C 286.410156 183.230469 287.859375 184.042969 289.359375 184.75 C 289.910156 185.007812 290.46875 185.25 291.042969 185.453125 C 291.28125 185.542969 291.992188 185.605469 291.796875 185.722656 C 290.957031 186.152344 289.058594 185.933594 288.078125 185.929688 C 284.964844 185.929688 281.855469 185.929688 278.75 185.867188 C 266.285156 185.511719 254.144531 182.589844 241.746094 181.34375 C 237.132812 181 232.550781 180.382812 228.007812 179.496094 C 226.574219 179.179688 225.144531 178.847656 223.71875 178.515625 L 222.210938 178.171875 C 221.902344 178.09375 221.152344 177.679688 221.273438 177.980469 C 222.78125 181.75 227.117188 184.089844 230.136719 186.464844 C 234.171875 189.640625 237.75 193.265625 240.875 197.34375 C 242.773438 199.875 243.925781 202.542969 245.269531 205.378906 C 245.738281 206.378906 246.261719 207.351562 246.839844 208.296875 C 247.132812 208.761719 248.347656 209.847656 247.847656 209.609375 C 246.339844 208.855469 244.832031 207 243.550781 205.875 C 239.027344 201.851562 235.203125 196.988281 230.632812 193.058594 C 224.757812 187.992188 216.886719 185.710938 210.394531 181.554688 C 207.359375 179.476562 204.164062 177.679688 200.808594 176.164062 C 200.054688 175.855469 199.300781 175.539062 198.546875 175.269531 C 198.214844 175.148438 197.582031 174.574219 197.542969 174.929688 C 197.183594 178.3125 201.78125 183.976562 203.644531 186.578125 C 204.28125 187.464844 204.96875 188.316406 205.703125 189.125 C 206.132812 189.59375 207.535156 190.132812 207.015625 190.488281 C 206.496094 190.84375 205.628906 189.902344 204.972656 189.539062 C 202.996094 188.382812 201.128906 187.074219 199.367188 185.609375 C 192.347656 180.101562 185.871094 172.992188 177.816406 168.957031 C 174.371094 167.230469 170.367188 167.027344 167.003906 165.1875 C 161.0625 161.894531 161.136719 160.839844 154.644531 158.328125 C 152.066406 157.308594 154.878906 149.039062 159.824219 152.9375 Z M 159.824219 152.9375 " fill-opacity="1" fill-rule="evenodd"/><path fill="rgb(94.119263%, 30.589294%, 33.729553%)" d="M 188.203125 136.757812 C 188.699219 145.894531 188.15625 155.136719 184.273438 163.597656 C 176.492188 180.515625 156.90625 194.46875 138.273438 195.714844 C 132.785156 196.082031 126.917969 195.960938 121.683594 194.011719 C 110.375 189.789062 101.972656 179.996094 96.046875 169.886719 C 94.613281 167.433594 90.851562 160.90625 93.03125 158.054688 C 93.601562 157.300781 95.691406 157.097656 96.484375 156.878906 C 99.636719 155.976562 102.800781 155.152344 105.960938 154.273438 C 118.902344 150.660156 131.878906 147.191406 144.976562 144.175781 C 154.613281 141.914062 164.351562 140.226562 173.957031 137.898438 C 178.519531 136.789062 183.195312 134.980469 187.832031 134.277344 " fill-opacity="1" fill-rule="evenodd"/><path fill="rgb(96.078491%, 86.268616%, 74.119568%)" d="M 162.488281 152.128906 C 163.140625 153.40625 163.945312 154.578125 164.90625 155.644531 C 165.351562 156.140625 165.828125 156.605469 166.339844 157.03125 C 167.433594 157.957031 171 159.40625 169.441406 156.277344 C 168.75 155.082031 167.785156 154.183594 166.542969 153.578125 C 165.285156 152.875 163.980469 152.273438 162.628906 151.769531 Z M 115.832031 164.351562 C 115.519531 165.394531 115.113281 166.398438 114.613281 167.367188 C 114.007812 168.484375 112.800781 170.285156 111.472656 170.746094 C 111.121094 170.871094 110.847656 170.066406 110.820312 169.878906 C 110.707031 168.898438 110.914062 167.992188 111.4375 167.15625 C 112.28125 165.648438 113.699219 164.699219 115.011719 163.664062 Z M 152.464844 160.746094 C 152.773438 162.046875 153.207031 163.304688 153.761719 164.515625 C 154.113281 165.265625 154.542969 165.964844 155.050781 166.613281 C 155.640625 167.367188 158.394531 169.960938 158.242188 167.230469 C 158.222656 166.832031 158.136719 166.449219 157.984375 166.078125 C 157.121094 163.925781 155.699219 162.242188 153.71875 161.035156 Z M 129.367188 167.925781 C 129.59375 169.726562 129.488281 171.507812 129.042969 173.269531 C 128.929688 173.875 128.753906 174.460938 128.523438 175.035156 C 128.0625 176.066406 126.722656 177.855469 126.34375 175.710938 C 126.203125 174.359375 126.386719 173.054688 126.894531 171.792969 C 127.308594 170.539062 127.9375 169.410156 128.441406 168.203125 Z M 141.304688 165.511719 C 140.878906 167.316406 140.769531 169.136719 140.964844 170.976562 C 141.019531 171.691406 141.160156 172.390625 141.382812 173.074219 C 141.71875 174.046875 143.816406 177.191406 144.511719 174.625 C 144.820312 172.960938 144.589844 171.367188 143.824219 169.855469 C 143.273438 168.601562 142.503906 167.480469 141.839844 166.296875 Z M 141.304688 165.511719 " fill-opacity="1" fill-rule="evenodd"/><g clip-path="url(#clip-0)"><path fill="rgb(65.879822%, 72.938538%, 19.219971%)" d="M 215.824219 164.585938 C 214.652344 161.148438 215.589844 156.097656 215.535156 152.523438 C 215.363281 141.132812 212.113281 128.632812 222.496094 120.179688 C 226.5 116.929688 231.703125 116.886719 236.363281 115.1875 C 240.886719 113.5625 244.296875 109.609375 246.746094 105.652344 C 252.335938 96.652344 251.890625 86.414062 255.652344 76.867188 C 260.605469 64.332031 274.332031 56.835938 287.496094 56.925781 C 297.171875 56.996094 304.652344 63.796875 313.703125 65.898438 C 317.058594 66.652344 320.488281 65.621094 323.820312 65.3125 C 329.257812 64.820312 335.070312 65.5 339.265625 69.292969 C 344.609375 74.125 345.710938 81.113281 345.144531 87.964844 C 344.058594 101.183594 335.683594 114.617188 324.898438 122.214844 C 317.609375 127.355469 307.511719 128.433594 300.828125 134.203125 C 294.148438 139.96875 291.976562 148.796875 285.304688 154.484375 C 273.839844 164.238281 258.027344 165.039062 243.792969 163.945312 C 234.832031 163.257812 224.894531 158.914062 217.453125 165.828125 " fill-opacity="1" fill-rule="evenodd"/></g><path fill="rgb(49.01886%, 57.249451%, 10.978699%)" d="M 211.402344 163.621094 C 216.3125 158.6875 215.816406 157.753906 219.902344 152.3125 C 222.21875 149.234375 225.792969 147.425781 228.234375 144.449219 C 233.957031 137.480469 236.976562 128.359375 241.152344 120.464844 C 242.167969 118.414062 243.339844 116.460938 244.671875 114.601562 C 245.125 114.003906 245.429688 112.753906 246.183594 112.898438 C 246.808594 113.019531 245.746094 114.082031 245.539062 114.683594 C 245.199219 115.722656 244.917969 116.773438 244.6875 117.84375 C 244.046875 120.972656 242.148438 128.027344 243.859375 130.96875 C 244.039062 131.277344 244.386719 130.5 244.613281 130.214844 C 245.203125 129.65625 245.757812 129.054688 246.324219 128.464844 C 248.777344 125.722656 250.964844 122.785156 252.886719 119.652344 C 257.132812 113.214844 263.398438 107.929688 266.691406 100.910156 C 269.265625 95.453125 270.757812 89.464844 273.28125 83.941406 C 273.992188 82.433594 274.617188 80.074219 275.6875 78.785156 C 276.042969 78.359375 275.371094 79.847656 275.304688 80.390625 C 275.15625 81.484375 275.074219 82.585938 275.054688 83.691406 C 274.980469 86.828125 275.011719 89.722656 274.300781 92.820312 C 273.109375 97.820312 271.3125 102.597656 268.917969 107.144531 C 267.136719 110.546875 264.128906 114.441406 264.28125 118.5 C 264.28125 118.824219 264.800781 118.136719 265.035156 117.949219 L 266.246094 117.027344 C 267.417969 116.148438 268.585938 115.257812 269.769531 114.390625 C 273.558594 111.730469 277.496094 109.304688 281.570312 107.105469 C 292.429688 100.96875 302.308594 93.363281 313.542969 87.972656 C 316.347656 86.632812 319.207031 85.417969 322.042969 84.121094 C 322.929688 83.722656 324.582031 82.742188 325.519531 82.800781 C 325.773438 82.800781 325.15625 83.164062 324.96875 83.335938 C 324.53125 83.765625 324.113281 84.210938 323.714844 84.671875 C 322.636719 85.921875 321.640625 87.257812 320.699219 88.605469 C 317.328125 93.324219 313.183594 97.21875 308.265625 100.292969 C 299.164062 106.246094 289.546875 111.425781 280.363281 117.324219 C 276.457031 119.839844 271.78125 122.078125 268.425781 125.34375 C 268.09375 125.660156 269.308594 125.171875 269.753906 125.089844 C 270.507812 124.9375 271.324219 124.832031 272.105469 124.710938 C 274.851562 124.289062 277.445312 123.261719 280.152344 122.652344 C 284.882812 121.597656 289.617188 120.535156 294.375 119.597656 C 297.113281 119.058594 300.339844 118.550781 302.667969 116.871094 C 302.828125 116.765625 302.324219 117.011719 302.148438 117.097656 C 301.628906 117.332031 301.109375 117.585938 300.601562 117.851562 C 299.382812 118.492188 298.191406 119.191406 296.984375 119.871094 C 293.101562 122.058594 289.316406 124.644531 285.207031 126.363281 C 281.515625 127.917969 277.683594 128.941406 273.714844 129.4375 C 270.265625 129.859375 266.324219 129.695312 263.203125 131.382812 C 259.65625 133.304688 257.554688 137.414062 254.972656 140.371094 C 253.875 141.628906 249.085938 145.40625 249.121094 147.15625 C 249.121094 147.457031 249.710938 147.15625 250.003906 147.15625 C 250.691406 147.15625 251.386719 147.15625 252.070312 147.15625 C 254.039062 147.207031 256.023438 147.417969 257.992188 147.570312 C 264.539062 148.0625 271.074219 147.914062 277.597656 147.132812 C 279.925781 146.867188 277.792969 147.050781 275.671875 147.660156 C 269.1875 149.507812 264.316406 151.324219 257.574219 151.050781 C 248.367188 150.683594 234.675781 151.503906 226.886719 156.917969 C 223.238281 159.355469 220.378906 162.507812 218.304688 166.371094 C 215.402344 171.964844 209.480469 165.558594 211.402344 163.621094 Z M 211.402344 163.621094 " fill-opacity="1" fill-rule="evenodd"/><path fill="rgb(96.078491%, 86.268616%, 74.119568%)" d="M 205.515625 171.324219 L 209.957031 182.074219 C 209.957031 182.074219 225.640625 156.441406 266.511719 157.949219 C 293.039062 155.152344 313.324219 184.941406 313.324219 184.941406 L 317.992188 174.792969 C 317.992188 174.792969 298.03125 149.453125 266.203125 149.453125 C 234.375 149.453125 205.515625 171.324219 205.515625 171.324219 Z M 205.515625 171.324219 " fill-opacity="1" fill-rule="evenodd"/><path fill="rgb(96.078491%, 86.268616%, 74.119568%)" d="M 172.3125 155.191406 C 142.519531 166.386719 114.921875 149.65625 114.921875 149.65625 L 115.71875 138.515625 C 115.71875 138.515625 145.1875 159.269531 169.03125 147.328125 C 207.828125 134.347656 213.523438 104.867188 213.523438 104.867188 L 221.464844 113.386719 C 221.464844 113.386719 202.113281 143.996094 172.3125 155.191406 Z M 172.3125 155.191406 " fill-opacity="1" fill-rule="evenodd"/><path fill="rgb(0%, 0%, 0%)" d="M 234.917969 294.941406 L 229.636719 308.292969 C 184.882812 318.09375 137.445312 306.339844 137.445312 306.339844 L 133.484375 295.320312 C 64.285156 279.992188 12.082031 233.574219 3.972656 176.957031 C 2.789062 176.246094 1.667969 175.539062 0.625 174.816406 L 3.550781 157.476562 C 3.550781 157.476562 177.367188 216 365.378906 156.058594 L 368.929688 174.671875 C 366.832031 176.382812 364.640625 177.960938 362.355469 179.40625 C 353.191406 234.441406 302.277344 279.464844 234.917969 294.941406 Z M 234.917969 294.941406 " fill-opacity="1" fill-rule="evenodd"/><path fill="rgb(96.078491%, 86.268616%, 74.119568%)" d="M 114.875 209.003906 C 111.574219 208.589844 108.277344 208.09375 104.980469 207.640625 C 101.6875 207.1875 98.414062 206.601562 95.125 206.070312 L 90.203125 205.234375 L 85.292969 204.292969 C 72.195312 201.773438 59.121094 198.660156 45.886719 194.980469 C 44.890625 194.710938 42.425781 194.054688 39.929688 193.308594 C 37.433594 192.5625 34.867188 191.800781 33.683594 191.417969 C 26.324219 188.988281 19.109375 186.265625 11.816406 183.257812 C 6.539062 181.050781 4.34375 179.6875 3.574219 178.992188 C 2.804688 178.296875 3.4375 178.238281 3.761719 178.296875 C 4.789062 178.496094 5.90625 178.707031 6.953125 178.871094 C 10.152344 179.554688 13.285156 180.476562 16.347656 181.628906 C 23.136719 184.414062 30.078125 186.90625 37.117188 189.167969 C 40.644531 190.269531 44.171875 191.429688 47.746094 192.382812 C 49.527344 192.878906 51.300781 193.421875 53.09375 193.890625 L 58.476562 195.300781 C 72.804688 198.976562 87.367188 201.851562 101.777344 204.066406 C 105.003906 204.558594 108.675781 205.046875 112.621094 205.613281 C 114.597656 205.914062 116.648438 206.109375 118.742188 206.367188 L 125.175781 207.121094 C 127.347656 207.398438 129.570312 207.542969 131.796875 207.753906 L 138.492188 208.332031 C 140.753906 208.558594 142.949219 208.636719 145.152344 208.777344 L 151.636719 209.164062 C 168.625 210 182.554688 209.707031 183.382812 209.765625 C 191.625 209.441406 199.445312 209.40625 207.203125 208.953125 C 214.964844 208.710938 222.648438 208.03125 230.648438 207.347656 C 234.773438 206.925781 238.941406 206.375 243.082031 205.875 C 245.164062 205.613281 247.261719 205.378906 249.347656 205.085938 L 255.621094 204.097656 L 261.917969 203.09375 C 264.015625 202.734375 266.132812 202.460938 268.222656 202.015625 L 280.824219 199.527344 C 284.488281 198.851562 288.101562 197.9375 291.71875 197.085938 L 302.570312 194.523438 L 313.371094 191.640625 L 318.785156 190.210938 C 320.59375 189.734375 322.410156 189.273438 324.207031 188.703125 C 329.785156 187.058594 335.375 185.476562 340.855469 184.027344 C 346.308594 182.453125 351.640625 180.914062 356.804688 179.625 C 358.242188 179.230469 359.695312 178.917969 361.171875 178.691406 C 363.703125 178.402344 360.800781 179.8125 358.6875 180.882812 C 355.140625 182.59375 351.5 184.085938 347.769531 185.363281 C 345.6875 186.117188 343.578125 186.871094 341.457031 187.519531 C 339.339844 188.167969 337.28125 188.777344 335.367188 189.320312 L 323.964844 192.53125 C 320.125 193.558594 316.242188 194.492188 312.351562 195.488281 L 306.507812 196.996094 C 305.527344 197.242188 304.554688 197.507812 303.574219 197.75 L 300.609375 198.398438 L 288.742188 201.027344 C 284.933594 201.964844 281.042969 202.632812 277.175781 203.417969 C 273.304688 204.203125 269.429688 204.988281 265.539062 205.679688 L 253.894531 207.574219 C 251.964844 207.867188 250.050781 208.226562 248.121094 208.453125 L 242.367188 209.207031 L 236.296875 209.960938 C 234.273438 210.203125 232.277344 210.496094 230.355469 210.632812 L 224.125 211.144531 L 219.285156 211.476562 C 217.496094 211.613281 215.558594 211.824219 213.46875 211.898438 L 199.574219 212.652344 L 183.667969 213.023438 C 178.171875 212.964844 172.546875 212.984375 167.003906 212.863281 L 158.777344 212.570312 L 154.757812 212.433594 C 153.429688 212.390625 152.125 212.277344 150.828125 212.210938 C 140.484375 211.644531 131.292969 210.792969 124.867188 210.171875 Z M 168.105469 300.980469 C 171.703125 301.140625 178.390625 301.585938 184.527344 301.734375 C 190.667969 301.886719 196.253906 301.789062 197.605469 301.804688 C 198.683594 301.804688 199.867188 301.683594 200.984375 301.585938 C 203.125 301.410156 205.3125 301.191406 207.511719 300.964844 C 209.714844 300.738281 211.894531 300.308594 214.066406 300 C 215.191406 299.859375 216.328125 299.753906 217.4375 299.570312 L 220.777344 299.027344 L 224.09375 298.515625 C 225.195312 298.351562 226.289062 298.207031 227.367188 297.980469 C 228.5625 297.726562 229.738281 297.402344 230.898438 297.015625 C 232.011719 296.695312 233.015625 296.164062 233.914062 295.433594 C 234.472656 294.933594 235.226562 294.316406 234.425781 293.96875 C 234 293.835938 233.5625 293.773438 233.113281 293.789062 C 231.566406 293.769531 230.03125 293.867188 228.5 294.082031 C 226.945312 294.292969 225.390625 294.648438 223.800781 294.898438 C 221.765625 295.265625 219.75 295.6875 217.769531 296.140625 C 216.765625 296.382812 215.753906 296.554688 214.753906 296.722656 L 211.734375 297.234375 L 208.214844 297.777344 C 207.039062 297.949219 205.863281 298.027344 204.691406 298.140625 C 202.347656 298.335938 200.015625 298.570312 197.71875 298.636719 C 195.417969 298.703125 193.351562 298.636719 191.195312 298.597656 C 189.039062 298.5625 186.867188 298.417969 184.574219 298.515625 L 181.859375 298.515625 L 175.757812 298.335938 C 171.046875 298.160156 165.472656 297.808594 161.855469 297.511719 C 153.777344 296.894531 145.398438 296.414062 137.339844 295.117188 C 136.296875 295.085938 135.332031 295.335938 134.4375 295.871094 L 133.402344 296.570312 C 133.175781 296.707031 132.550781 297.761719 135.769531 298.144531 C 137.972656 298.394531 140.089844 298.742188 142.242188 299.019531 C 142.933594 299.113281 145.257812 299.171875 145.800781 299.21875 C 153.371094 299.8125 160.632812 300.671875 168.105469 301.003906 Z M 168.105469 300.980469 " fill-opacity="1" fill-rule="nonzero"/><path fill="rgb(96.078491%, 86.268616%, 74.119568%)" d="M 322.847656 229.132812 C 326.476562 228.109375 329.96875 232.050781 333.652344 236.222656 L 334.628906 237.320312 C 335.417969 236.371094 336.222656 235.390625 337.046875 234.375 L 336.480469 233.726562 C 332.394531 229.097656 327.742188 223.835938 321.839844 225.5 C 315.933594 227.167969 314.605469 233.988281 313.460938 240.066406 C 312.382812 245.796875 311.363281 251.199219 307.316406 252.171875 C 303.265625 253.144531 299.925781 248.699219 296.425781 244.039062 C 292.707031 239.101562 288.5 233.484375 282.511719 234.699219 C 276.527344 235.910156 274.679688 242.597656 273.078125 248.570312 C 271.570312 254.195312 270.152344 259.5 266.066406 260.15625 C 261.980469 260.8125 258.992188 256.132812 255.871094 251.214844 C 252.554688 246.007812 248.777344 240.101562 242.742188 240.828125 C 236.710938 241.550781 234.351562 248.101562 232.300781 253.9375 C 230.375 259.425781 228.527344 264.613281 224.449219 264.953125 C 220.371094 265.292969 217.722656 260.390625 214.984375 255.257812 C 212.144531 249.917969 208.953125 243.886719 203.085938 243.886719 L 202.695312 243.886719 C 196.585938 244.085938 193.773438 250.5 191.292969 256.160156 C 188.964844 261.484375 186.769531 266.519531 182.636719 266.542969 C 178.503906 266.566406 176.285156 261.484375 173.949219 256.160156 C 171.46875 250.5 168.671875 244.097656 162.570312 243.886719 C 156.46875 243.675781 153.175781 249.796875 150.269531 255.25 C 147.535156 260.382812 144.933594 265.230469 140.832031 264.945312 C 136.726562 264.65625 134.882812 259.417969 132.957031 253.929688 C 130.90625 248.09375 128.59375 241.484375 122.535156 240.820312 C 116.480469 240.15625 112.734375 245.992188 109.386719 251.207031 C 106.265625 256.117188 103.300781 260.761719 99.214844 260.148438 C 95.125 259.539062 93.6875 254.1875 92.179688 248.5625 C 90.578125 242.582031 88.769531 235.8125 82.773438 234.691406 C 76.78125 233.566406 72.558594 239.085938 68.839844 244.03125 C 65.332031 248.683594 62.050781 253.078125 57.972656 252.164062 C 53.894531 251.253906 52.882812 245.78125 51.804688 240.058594 C 50.667969 233.972656 49.363281 227.082031 43.449219 225.492188 C 37.539062 223.902344 33.027344 229 28.933594 233.605469 L 28.835938 233.710938 C 29.613281 234.675781 30.425781 235.65625 31.265625 236.652344 L 31.339844 236.574219 C 31.445312 236.453125 31.542969 236.332031 31.648438 236.222656 C 35.335938 232.042969 38.820312 228.109375 42.476562 229.132812 C 46.132812 230.160156 47.09375 235.285156 48.125 240.757812 C 49.316406 247.105469 50.671875 254.328125 57.136719 255.835938 C 63.597656 257.34375 67.996094 251.464844 71.878906 246.300781 C 75.21875 241.859375 78.378906 237.660156 82.074219 238.398438 C 85.769531 239.136719 87.125 244.167969 88.558594 249.542969 C 90.230469 255.777344 92.117188 262.832031 98.664062 263.867188 C 105.207031 264.898438 109.128906 258.664062 112.589844 253.222656 C 115.605469 248.53125 118.390625 244.105469 122.128906 244.558594 C 125.871094 245.011719 127.582031 249.917969 129.421875 255.167969 C 131.554688 261.25 133.945312 268.148438 140.566406 268.699219 C 147.1875 269.25 150.589844 262.714844 153.621094 257.011719 C 156.234375 252.113281 158.703125 247.476562 162.449219 247.640625 C 166.199219 247.808594 168.285156 252.574219 170.519531 257.660156 C 173.105469 263.574219 176.039062 270.265625 182.660156 270.304688 C 189.28125 270.34375 192.183594 263.574219 194.769531 257.660156 C 197.03125 252.574219 199.113281 247.761719 202.859375 247.640625 C 206.609375 247.523438 209.050781 252.113281 211.667969 257.019531 C 214.683594 262.714844 218.136719 269.167969 224.742188 268.699219 C 231.347656 268.230469 233.730469 261.273438 235.875 255.203125 C 237.714844 249.925781 239.457031 244.996094 243.1875 244.589844 C 246.921875 244.183594 249.71875 248.570312 252.703125 253.257812 C 256.171875 258.703125 260.09375 264.867188 266.65625 263.898438 C 273.214844 262.925781 275.070312 255.792969 276.738281 249.574219 C 278.175781 244.195312 279.535156 239.117188 283.246094 238.421875 C 286.953125 237.730469 290.082031 241.882812 293.425781 246.332031 C 297.308594 251.488281 301.71875 257.34375 308.1875 255.859375 C 314.660156 254.375 315.984375 247.128906 317.179688 240.78125 C 318.203125 235.292969 319.175781 230.121094 322.847656 229.132812 Z M 322.847656 229.132812 " fill-opacity="1" fill-rule="nonzero"/></svg>