<?xml version="1.0" encoding="UTF-8"?><svg xmlns="http://www.w3.org/2000/svg" xmlns:xlink="http://www.w3.org/1999/xlink" contentScriptType="text/ecmascript" width="375" zoomAndPan="magnify" contentStyleType="text/css" viewBox="0 0 375 374.999991" height="374.999991" preserveAspectRatio="xMidYMid meet" version="1.0"><defs><clipPath id="clip-0"><path d="M 27.800781 0 L 347.300781 0 L 347.300781 375 L 27.800781 375 Z M 27.800781 0 " clip-rule="nonzero"/></clipPath></defs><g clip-path="url(#clip-0)"><path fill="rgb(9.01947%, 26.669312%, 24.708557%)" d="M 256.597656 0.0625 L 118.503906 0.0625 C 68.507812 0.0625 27.800781 40.757812 27.800781 90.734375 L 27.800781 284.234375 C 27.800781 334.242188 68.507812 374.90625 118.503906 374.90625 L 256.597656 374.90625 C 306.621094 374.90625 347.300781 334.214844 347.300781 284.207031 L 347.300781 90.734375 C 347.300781 40.726562 306.59375 0.0625 256.597656 0.0625 Z M 183.820312 103.984375 C 190.980469 119.539062 193.96875 134.472656 184.207031 149.972656 L 184.238281 149.972656 C 183.082031 151.746094 180.835938 152.515625 178.824219 151.804688 C 175.183594 150.53125 171.8125 148.609375 168.851562 146.125 C 158.085938 137.253906 151.398438 121.460938 150.007812 101.675781 C 147.671875 68.527344 161.632812 47.675781 178.113281 42.085938 C 179.503906 41.644531 181.011719 42.410156 181.457031 43.800781 C 181.664062 44.421875 181.632812 45.101562 181.367188 45.695312 C 177.253906 54.953125 170.984375 76.183594 183.820312 103.984375 Z M 191.367188 101.5 L 191.394531 101.53125 C 185.65625 83.992188 179.738281 65.894531 191.574219 43.980469 C 192.429688 42.324219 194.382812 41.523438 196.160156 42.085938 C 199.886719 43.328125 203.347656 45.28125 206.363281 47.824219 C 217.132812 56.695312 223.820312 72.488281 225.210938 92.273438 C 227.515625 125.160156 213.820312 145.890625 197.550781 151.6875 C 196.128906 152.128906 194.648438 151.359375 194.175781 149.972656 C 193.96875 149.351562 194 148.667969 194.292969 148.050781 C 201.246094 131.753906 196.246094 116.40625 191.367188 101.5 Z M 333.957031 284.207031 C 333.957031 326.878906 299.257812 361.570312 256.566406 361.570312 L 191.574219 361.570312 L 191.574219 346.578125 C 191.574219 344.359375 192.460938 342.257812 194 340.691406 L 216.984375 317.710938 C 218.640625 316.027344 221.066406 315.316406 223.40625 315.820312 C 228.019531 316.855469 232.753906 317.386719 237.515625 317.386719 C 249.054688 317.386719 263.757812 314.164062 276.507812 301.417969 C 300.792969 277.136719 308.011719 227.453125 308.308594 225.355469 C 308.605469 223.164062 307.097656 221.15625 304.90625 220.828125 C 304.550781 220.769531 304.167969 220.769531 303.78125 220.828125 L 303.753906 220.828125 C 301.652344 221.125 251.953125 228.3125 227.664062 252.621094 C 208.671875 271.605469 210.832031 294.824219 213.257812 305.675781 C 213.761719 307.984375 213.050781 310.378906 211.394531 312.0625 L 195.359375 328.09375 C 194.5 328.980469 193.113281 328.980469 192.222656 328.121094 C 191.78125 327.707031 191.542969 327.117188 191.542969 326.523438 L 191.542969 252.796875 C 191.542969 250.582031 192.429688 248.480469 193.96875 246.914062 L 216.957031 223.933594 C 218.640625 222.25 221.066406 221.539062 223.375 222.042969 C 227.988281 223.078125 232.722656 223.578125 237.488281 223.609375 C 249.023438 223.609375 263.726562 220.386719 276.476562 207.640625 C 300.765625 183.359375 307.984375 133.675781 308.277344 131.578125 C 308.605469 129.386719 307.066406 127.375 304.90625 127.082031 C 304.523438 127.023438 304.136719 127.023438 303.78125 127.082031 C 301.683594 127.375 251.980469 134.5625 227.695312 158.871094 C 208.703125 177.859375 210.863281 201.074219 213.289062 211.925781 C 213.789062 214.234375 213.082031 216.628906 211.394531 218.285156 L 195.332031 234.285156 C 194.472656 235.171875 193.082031 235.171875 192.195312 234.316406 C 191.75 233.902344 191.515625 233.308594 191.515625 232.71875 L 191.515625 164.582031 C 191.542969 162.597656 192.964844 160.914062 194.914062 160.558594 C 217.398438 156.300781 235.917969 131.605469 233.109375 91.652344 C 231.570312 69.679688 223.878906 51.875 211.394531 41.613281 C 205.832031 36.941406 199.058594 33.953125 191.867188 32.949219 C 191.691406 32.917969 191.515625 32.890625 191.335938 32.890625 C 188.496094 32.5625 185.65625 32.5625 182.816406 32.890625 C 160.273438 35.609375 138.972656 60.332031 141.933594 102.269531 C 143.46875 124.273438 151.191406 142.046875 163.675781 152.308594 C 168.46875 156.300781 174.148438 159.078125 180.273438 160.441406 C 182.164062 160.824219 183.554688 162.480469 183.554688 164.433594 L 183.554688 232.71875 C 183.554688 233.929688 182.578125 234.9375 181.367188 234.9375 C 180.773438 234.9375 180.183594 234.699219 179.769531 234.253906 L 163.765625 218.257812 C 162.078125 216.601562 161.367188 214.175781 161.902344 211.867188 C 164.328125 201.015625 166.484375 177.800781 147.492188 158.8125 C 123.207031 134.535156 73.507812 127.316406 71.40625 127.023438 C 69.214844 126.695312 67.203125 128.234375 66.910156 130.394531 C 66.851562 130.777344 66.851562 131.164062 66.910156 131.515625 C 67.203125 133.617188 74.394531 183.300781 98.710938 207.582031 C 111.460938 220.328125 126.132812 223.550781 137.703125 223.550781 C 142.433594 223.550781 147.167969 223.019531 151.8125 221.984375 C 154.121094 221.480469 156.546875 222.191406 158.234375 223.875 L 181.21875 246.855469 C 182.785156 248.421875 183.644531 250.519531 183.644531 252.738281 L 183.644531 326.4375 C 183.644531 327.648438 182.667969 328.65625 181.457031 328.65625 C 180.863281 328.65625 180.273438 328.417969 179.859375 327.972656 L 163.824219 311.945312 C 162.136719 310.289062 161.425781 307.863281 161.960938 305.558594 C 164.386719 294.703125 166.546875 271.488281 147.554688 252.503906 C 123.265625 228.222656 73.566406 221.007812 71.464844 220.710938 C 69.277344 220.414062 67.265625 221.921875 66.9375 224.113281 C 66.878906 224.46875 66.878906 224.851562 66.9375 225.234375 C 67.234375 227.335938 74.421875 277.019531 98.742188 301.300781 C 111.492188 314.046875 126.164062 317.269531 137.730469 317.269531 C 142.464844 317.269531 147.199219 316.738281 151.84375 315.703125 C 154.148438 315.199219 156.574219 315.910156 158.261719 317.59375 L 181.25 340.574219 C 182.816406 342.140625 183.675781 344.238281 183.675781 346.457031 L 183.675781 361.453125 L 118.53125 361.453125 C 75.84375 361.453125 41.140625 326.761719 41.140625 284.085938 L 41.140625 90.734375 C 41.140625 48.0625 75.84375 13.371094 118.503906 13.371094 L 256.597656 13.371094 C 299.257812 13.371094 333.957031 48.0625 333.988281 90.734375 L 333.988281 284.207031 Z M 296.476562 242.800781 C 294.550781 250.375 292.1875 257.796875 289.347656 265.070312 C 289.019531 265.898438 288.101562 266.34375 287.246094 266.078125 L 275.707031 262.617188 C 274.789062 262.351562 274.289062 261.375 274.554688 260.488281 C 274.644531 260.222656 274.789062 259.957031 274.996094 259.777344 L 293.605469 241.175781 C 294.285156 240.523438 295.382812 240.554688 296.03125 241.234375 C 296.417969 241.648438 296.59375 242.242188 296.476562 242.800781 Z M 287.925781 235.496094 L 269.316406 254.101562 C 268.636719 254.78125 267.574219 254.78125 266.890625 254.101562 C 266.683594 253.894531 266.539062 253.65625 266.449219 253.359375 L 262.988281 241.828125 C 262.722656 240.96875 263.164062 240.050781 264.023438 239.726562 C 271.300781 236.886719 278.726562 234.523438 286.296875 232.601562 C 287.214844 232.363281 288.164062 232.925781 288.371094 233.839844 C 288.515625 234.460938 288.339844 235.082031 287.925781 235.496094 Z M 265.769531 268.945312 C 266.210938 268.503906 266.863281 268.324219 267.453125 268.53125 L 283.519531 273.351562 C 284.433594 273.589844 284.96875 274.535156 284.703125 275.453125 C 284.671875 275.539062 284.640625 275.660156 284.582031 275.746094 C 281.359375 282.164062 277.601562 288.226562 273.132812 293.285156 C 272.691406 293.789062 272.011719 293.964844 271.359375 293.789062 L 250.652344 287.578125 C 249.761719 287.3125 249.230469 286.363281 249.496094 285.476562 C 249.585938 285.210938 249.734375 284.972656 249.910156 284.765625 Z M 262.574219 302.363281 C 250.652344 309.875 238.046875 310.023438 229.675781 308.871094 C 228.757812 308.722656 228.109375 307.863281 228.257812 306.949219 C 228.316406 306.59375 228.464844 306.238281 228.730469 306 L 240.828125 293.90625 C 241.273438 293.460938 241.921875 293.3125 242.515625 293.492188 L 262.128906 299.375 C 263.015625 299.644531 263.519531 300.617188 263.253906 301.507812 C 263.136719 301.832031 262.867188 302.15625 262.574219 302.363281 Z M 260.117188 263.328125 L 244.351562 279.089844 C 243.667969 279.738281 242.605469 279.738281 241.953125 279.089844 C 241.746094 278.882812 241.597656 278.644531 241.539062 278.378906 L 235.355469 257.679688 C 235.148438 257.027344 235.355469 256.347656 235.859375 255.902344 C 240.886719 251.46875 246.984375 247.683594 253.402344 244.457031 C 254.230469 244.042969 255.265625 244.398438 255.679688 245.226562 C 255.710938 245.316406 255.769531 245.40625 255.796875 245.492188 L 260.621094 261.613281 C 260.710938 262.230469 260.5625 262.882812 260.117188 263.328125 Z M 235.621094 286.542969 C 235.800781 287.132812 235.652344 287.785156 235.207031 288.226562 L 223.109375 300.324219 C 222.457031 301.003906 221.394531 301.003906 220.710938 300.351562 C 220.445312 300.085938 220.269531 299.730469 220.210938 299.375 C 219.054688 291.035156 219.175781 278.4375 226.71875 266.492188 C 227.222656 265.691406 228.257812 265.484375 229.054688 265.988281 C 229.410156 266.195312 229.648438 266.550781 229.765625 266.933594 Z M 226.660156 172.773438 C 227.160156 171.972656 228.226562 171.738281 229.027344 172.269531 C 229.378906 172.507812 229.617188 172.832031 229.734375 173.214844 L 235.59375 192.734375 C 235.769531 193.324219 235.621094 194.007812 235.148438 194.449219 L 223.109375 206.484375 C 222.429688 207.167969 221.363281 207.167969 220.683594 206.484375 C 220.417969 206.21875 220.238281 205.894531 220.179688 205.511719 C 219.027344 197.230469 219.175781 184.660156 226.660156 172.773438 Z M 289.316406 171.292969 C 288.992188 172.121094 288.074219 172.566406 287.214844 172.300781 L 275.679688 168.839844 C 274.761719 168.574219 274.257812 167.597656 274.523438 166.710938 C 274.613281 166.445312 274.761719 166.175781 274.96875 166 L 293.578125 147.398438 C 294.226562 146.71875 295.320312 146.71875 296.003906 147.367188 C 296.445312 147.8125 296.625 148.460938 296.445312 149.054688 L 296.445312 149.023438 C 294.523438 156.566406 292.15625 164.019531 289.316406 171.292969 Z M 287.925781 141.75 L 269.289062 160.351562 C 268.609375 161.03125 267.542969 161.03125 266.863281 160.351562 C 266.65625 160.144531 266.507812 159.90625 266.417969 159.640625 L 262.957031 148.109375 C 262.691406 147.25 263.136719 146.332031 263.992188 146.007812 C 271.269531 143.167969 278.695312 140.804688 286.269531 138.882812 C 287.1875 138.644531 288.132812 139.207031 288.339844 140.125 C 288.515625 140.683594 288.339844 141.304688 287.925781 141.75 Z M 265.769531 175.167969 C 266.210938 174.722656 266.863281 174.546875 267.484375 174.722656 L 283.546875 179.542969 C 284.464844 179.8125 284.96875 180.785156 284.703125 181.703125 C 284.671875 181.792969 284.640625 181.882812 284.613281 181.941406 C 281.417969 188.328125 277.632812 194.421875 273.222656 199.417969 C 272.777344 199.921875 272.070312 200.128906 271.417969 199.921875 L 250.769531 193.769531 C 249.851562 193.503906 249.347656 192.527344 249.617188 191.609375 C 249.703125 191.34375 249.851562 191.078125 250.058594 190.902344 Z M 262.515625 208.617188 C 250.621094 216.097656 238.078125 216.246094 229.707031 215.09375 C 228.757812 214.945312 228.109375 214.085938 228.257812 213.140625 C 228.316406 212.753906 228.492188 212.429688 228.757812 212.164062 L 240.828125 200.097656 C 241.273438 199.65625 241.921875 199.476562 242.546875 199.65625 L 262.070312 205.511719 C 262.988281 205.777344 263.519531 206.722656 263.253906 207.640625 C 263.105469 208.054688 262.867188 208.410156 262.515625 208.617188 Z M 260.089844 169.550781 L 244.351562 185.28125 C 243.667969 185.960938 242.574219 185.960938 241.921875 185.28125 C 241.714844 185.074219 241.570312 184.839844 241.480469 184.570312 L 235.296875 163.988281 C 235.089844 163.339844 235.269531 162.628906 235.800781 162.15625 C 240.828125 157.71875 246.894531 153.964844 253.285156 150.769531 C 254.140625 150.355469 255.175781 150.679688 255.589844 151.539062 C 255.621094 151.628906 255.679688 151.714844 255.710938 151.804688 L 260.53125 167.863281 C 260.710938 168.453125 260.53125 169.105469 260.089844 169.550781 Z M 154.949219 205.539062 C 154.800781 206.484375 153.941406 207.136719 152.996094 206.988281 C 152.613281 206.929688 152.285156 206.753906 152.019531 206.484375 L 139.949219 194.421875 C 139.507812 193.976562 139.328125 193.324219 139.507812 192.703125 L 145.363281 173.1875 C 145.628906 172.269531 146.578125 171.765625 147.492188 172.03125 C 147.878906 172.152344 148.234375 172.386719 148.441406 172.742188 C 155.925781 184.660156 156.101562 197.230469 154.949219 205.539062 Z M 145.394531 215.09375 C 137.050781 216.246094 124.476562 216.097656 112.585938 208.617188 C 111.785156 208.113281 111.550781 207.046875 112.082031 206.25 C 112.320312 205.894531 112.644531 205.65625 113.027344 205.539062 L 132.554688 199.683594 C 133.144531 199.507812 133.828125 199.683594 134.269531 200.128906 L 146.308594 212.195312 C 146.992188 212.875 146.992188 213.9375 146.308594 214.617188 C 146.101562 214.855469 145.75 215.03125 145.394531 215.09375 Z M 90.574219 181.96875 C 90.160156 181.113281 90.488281 180.078125 91.34375 179.664062 C 91.433594 179.632812 91.523438 179.574219 91.609375 179.542969 L 107.675781 174.722656 C 108.296875 174.546875 108.945312 174.695312 109.390625 175.167969 L 125.128906 190.902344 C 125.808594 191.582031 125.808594 192.675781 125.128906 193.324219 C 124.921875 193.53125 124.683594 193.679688 124.417969 193.769531 L 103.800781 199.949219 C 103.148438 200.15625 102.4375 199.980469 101.964844 199.449219 L 101.996094 199.449219 C 97.527344 194.421875 93.769531 188.386719 90.574219 181.96875 Z M 78.683594 149.023438 C 78.445312 148.109375 79.007812 147.160156 79.925781 146.953125 C 80.515625 146.808594 81.136719 146.984375 81.550781 147.398438 L 100.160156 166 C 100.839844 166.679688 100.839844 167.746094 100.160156 168.425781 C 99.953125 168.632812 99.714844 168.78125 99.449219 168.867188 L 87.914062 172.328125 C 87.054688 172.59375 86.109375 172.152344 85.78125 171.292969 L 85.8125 171.292969 C 82.972656 164.046875 80.605469 156.59375 78.683594 149.023438 Z M 87.171875 139.296875 C 87.617188 138.851562 88.269531 138.675781 88.890625 138.851562 C 96.460938 140.773438 103.886719 143.140625 111.164062 145.980469 C 111.992188 146.304688 112.4375 147.222656 112.171875 148.078125 L 108.710938 159.613281 C 108.445312 160.527344 107.46875 161.03125 106.582031 160.765625 C 106.3125 160.675781 106.046875 160.527344 105.871094 160.320312 L 87.234375 141.71875 C 86.523438 141.070312 86.492188 139.976562 87.171875 139.296875 Z M 114.566406 167.832031 L 119.390625 151.773438 C 119.65625 150.859375 120.601562 150.355469 121.519531 150.621094 C 121.609375 150.652344 121.695312 150.679688 121.785156 150.738281 C 128.175781 153.933594 134.269531 157.71875 139.269531 162.125 C 139.773438 162.570312 139.980469 163.277344 139.773438 163.929688 L 133.589844 184.511719 C 133.324219 185.429688 132.347656 185.933594 131.429688 185.667969 C 131.164062 185.578125 130.898438 185.429688 130.71875 185.222656 L 114.980469 169.488281 C 114.566406 169.074219 114.390625 168.425781 114.566406 167.832031 Z M 154.949219 299.40625 C 154.800781 300.324219 153.941406 300.972656 153.027344 300.824219 C 152.671875 300.765625 152.316406 300.589844 152.078125 300.351562 L 139.949219 288.199219 C 139.507812 287.753906 139.359375 287.105469 139.535156 286.511719 L 145.421875 266.90625 C 145.6875 266.019531 146.636719 265.484375 147.523438 265.75 C 147.90625 265.871094 148.261719 266.105469 148.46875 266.460938 C 155.953125 278.4375 156.101562 291.035156 154.949219 299.40625 Z M 145.453125 308.871094 C 137.109375 310.023438 124.507812 309.90625 112.554688 302.363281 C 111.757812 301.859375 111.550781 300.796875 112.054688 300.027344 C 112.261719 299.703125 112.613281 299.4375 113 299.316406 L 132.613281 293.433594 C 133.207031 293.253906 133.855469 293.433594 134.300781 293.847656 L 146.398438 305.941406 C 147.050781 306.621094 147.050781 307.6875 146.371094 308.335938 C 146.132812 308.632812 145.777344 308.8125 145.453125 308.871094 Z M 90.488281 275.71875 C 90.074219 274.859375 90.425781 273.855469 91.285156 273.441406 C 91.375 273.382812 91.492188 273.351562 91.582031 273.324219 L 107.675781 268.503906 C 108.265625 268.324219 108.917969 268.503906 109.359375 268.914062 L 125.128906 284.679688 C 125.78125 285.328125 125.78125 286.421875 125.128906 287.074219 C 124.921875 287.28125 124.683594 287.429688 124.417969 287.488281 L 103.738281 293.699219 C 103.089844 293.90625 102.410156 293.699219 101.964844 293.195312 L 101.996094 293.226562 C 97.496094 288.199219 93.742188 282.136719 90.488281 275.71875 Z M 78.683594 242.800781 C 78.445312 241.886719 79.007812 240.9375 79.925781 240.730469 C 80.515625 240.585938 81.136719 240.761719 81.550781 241.175781 L 100.160156 259.777344 C 100.839844 260.457031 100.839844 261.523438 100.160156 262.203125 C 99.953125 262.410156 99.714844 262.558594 99.449219 262.644531 L 87.914062 266.105469 C 87.054688 266.371094 86.109375 265.929688 85.78125 265.070312 L 85.8125 265.070312 C 82.972656 257.824219 80.605469 250.375 78.683594 242.800781 Z M 87.171875 233.074219 C 87.617188 232.628906 88.269531 232.453125 88.890625 232.628906 C 96.460938 234.550781 103.886719 236.917969 111.164062 239.757812 C 111.992188 240.082031 112.4375 241 112.171875 241.855469 L 108.710938 253.390625 C 108.445312 254.308594 107.496094 254.808594 106.582031 254.542969 C 106.3125 254.453125 106.046875 254.308594 105.839844 254.101562 L 87.203125 235.496094 C 86.523438 234.847656 86.492188 233.753906 87.171875 233.074219 Z M 114.566406 261.640625 L 119.390625 245.554688 C 119.65625 244.664062 120.601562 244.132812 121.488281 244.398438 C 121.578125 244.429688 121.667969 244.457031 121.757812 244.519531 C 128.175781 247.742188 134.242188 251.496094 139.300781 255.960938 C 139.800781 256.40625 139.980469 257.085938 139.800781 257.738281 L 133.589844 278.351562 C 133.324219 279.238281 132.375 279.769531 131.460938 279.472656 C 131.195312 279.386719 130.957031 279.238281 130.75 279.058594 L 114.980469 263.296875 C 114.566406 262.851562 114.390625 262.230469 114.566406 261.640625 Z M 114.566406 261.640625 " fill-opacity="1" fill-rule="nonzero"/></g></svg>