<?xml version="1.0" encoding="UTF-8"?><svg xmlns="http://www.w3.org/2000/svg" xmlns:xlink="http://www.w3.org/1999/xlink" contentScriptType="text/ecmascript" width="375" zoomAndPan="magnify" contentStyleType="text/css" viewBox="0 0 375 374.999991" height="374.999991" preserveAspectRatio="xMidYMid meet" version="1.0"><defs><clipPath id="clip-0"><path d="M 0 4.75 L 374.960938 4.75 L 374.960938 370.222656 L 0 370.222656 Z M 0 4.75 " clip-rule="nonzero"/></clipPath></defs><g clip-path="url(#clip-0)"><path fill="rgb(86.669922%, 16.859436%, 12.159729%)" d="M 134.519531 78.523438 C 147.460938 80.859375 151.484375 80.882812 158.523438 78.644531 C 148.21875 76.269531 143.433594 76.246094 134.519531 78.523438 Z M 151.800781 47.363281 C 149.214844 47.535156 146.59375 47.449219 144.070312 47.9375 C 140.191406 48.679688 136.386719 49.816406 131.269531 51.101562 C 139.410156 53.285156 144.820312 52.488281 151.800781 47.363281 Z M 70.269531 202.453125 C 69.777344 198.167969 68.621094 196.851562 64.550781 195.746094 C 59.863281 194.46875 57.65625 195.582031 53.507812 201.546875 C 59.113281 203.898438 64.660156 203.335938 70.269531 202.453125 Z M 248.425781 205.355469 C 242.34375 198.484375 238.792969 196.898438 230.109375 196.9375 C 224.113281 196.96875 218.117188 197.121094 213.449219 203.707031 C 216.515625 204.386719 218.691406 205.355469 220.808594 205.253906 C 229.792969 204.804688 238.824219 206.546875 248.425781 205.355469 Z M 183.789062 189.40625 C 171.207031 191.085938 160.945312 195.652344 150.679688 200.101562 C 149.417969 200.648438 146.894531 201.183594 148.070312 204.148438 C 151.800781 204.503906 155.546875 205.003906 159.3125 205.191406 C 172.277344 205.816406 173.136719 205.347656 180.78125 194.367188 C 181.609375 193.175781 182.289062 191.882812 183.789062 189.40625 Z M 96.757812 202.035156 C 90.414062 192.542969 76.414062 182.574219 67.351562 180.734375 C 60.203125 179.28125 53.664062 180.835938 47.820312 185.050781 C 42.832031 188.648438 38.496094 192.960938 35.316406 198.28125 C 34.621094 199.449219 34.402344 200.90625 33.976562 202.179688 C 38.042969 204.457031 41.199219 203.78125 43.828125 200.996094 C 45.382812 199.351562 46.429688 197.238281 47.882812 195.472656 C 53.933594 188.109375 62.191406 186.515625 70.308594 191.417969 C 73.210938 193.167969 75.835938 195.519531 78.226562 197.957031 C 83.238281 203.070312 88.882812 205.035156 96.757812 202.035156 Z M 199.351562 43.410156 C 199.3125 44.199219 199.273438 44.988281 199.234375 45.785156 C 203.335938 45.34375 207.484375 45.136719 211.539062 44.425781 C 232.601562 40.710938 253.636719 36.828125 274.699219 33.089844 C 282.21875 31.75 289.796875 30.738281 297.324219 29.4375 C 315.402344 26.320312 333.46875 23.148438 351.53125 19.929688 C 354.527344 19.394531 357.503906 18.660156 360.398438 17.730469 C 362.355469 17.097656 363.472656 15.691406 361.800781 12.757812 C 358.789062 13.113281 355.4375 13.34375 352.144531 13.925781 C 341.230469 15.867188 330.351562 18.050781 319.425781 19.929688 C 298.71875 23.496094 277.824219 26.105469 257.628906 32.222656 C 255.800781 32.78125 253.921875 33.160156 252.042969 33.515625 C 234.484375 36.828125 216.917969 40.113281 199.351562 43.410156 Z M 213.753906 78.328125 C 214.773438 81.671875 216.871094 80.972656 218.636719 80.921875 C 224.75 80.726562 230.863281 80.253906 236.976562 80.277344 C 252.667969 80.324219 268.367188 80.316406 284.054688 80.828125 C 308.910156 81.648438 333.757812 82.878906 358.613281 83.914062 C 360.128906 83.984375 361.730469 84.199219 363.140625 83.804688 C 364.003906 83.566406 364.996094 82.382812 365.175781 81.476562 C 365.351562 80.585938 364.839844 79.085938 364.136719 78.613281 C 362.921875 77.816406 361.335938 77.328125 359.875 77.214844 C 351.105469 76.546875 342.324219 75.574219 333.539062 75.542969 C 311.726562 75.449219 289.898438 75.410156 268.089844 76.101562 C 250.175781 76.65625 232.136719 74.484375 213.753906 78.328125 Z M 161.574219 44.144531 C 159.074219 57.382812 161.976562 69.019531 171.875 78.636719 C 172.703125 79.441406 173.429688 80.324219 174.226562 81.152344 C 179.664062 86.808594 181.65625 93.53125 180.128906 101.183594 C 179.308594 105.300781 178.257812 109.375 177.035156 113.382812 C 175.929688 117.035156 174.203125 120.503906 173.195312 124.175781 C 171.765625 129.390625 170.835938 134.714844 174.441406 139.566406 C 174.851562 140.132812 175.550781 140.480469 176.398438 141.152344 C 178.621094 140.300781 181.019531 139.386719 183.457031 138.453125 C 183.242188 136.65625 183.316406 135.496094 182.945312 134.507812 C 179.101562 124.144531 180.121094 114.304688 185.753906 104.84375 C 187.117188 102.550781 188.300781 100.144531 189.46875 97.746094 C 191.140625 94.3125 190.800781 91.007812 188.238281 88.160156 C 185.429688 85.042969 182.621094 81.886719 179.480469 79.109375 C 173.382812 73.722656 170.441406 66.9375 169.878906 59.007812 C 169.605469 55.203125 169.628906 51.371094 169.429688 47.558594 C 169.328125 45.792969 169.003906 44.039062 168.761719 42.105469 C 167.007812 42.203125 165.84375 42.074219 164.816406 42.382812 C 163.757812 42.699219 162.820312 43.441406 161.574219 44.144531 Z M 125.792969 189.894531 C 130.101562 193.144531 131.695312 196.996094 136.503906 197.453125 C 149.996094 189.917969 164.769531 184.703125 179.859375 180.355469 C 184.246094 179.085938 188.773438 177.933594 193.300781 177.5625 C 202.246094 176.84375 210.140625 172.757812 218.558594 170.375 C 219.109375 170.21875 219.410156 169.207031 220.011719 168.308594 C 212.578125 161.066406 203.878906 160.191406 194.722656 163.890625 C 188.007812 166.605469 181.730469 170.390625 175.125 173.398438 C 167.828125 176.734375 160.542969 180.207031 152.960938 182.738281 C 144.734375 185.484375 136.160156 187.21875 125.792969 189.894531 Z M 187.644531 38.863281 C 178.976562 38.542969 177.453125 39.667969 177.183594 46.808594 C 177.058594 50.242188 177.113281 53.714844 177.445312 57.128906 C 178.132812 64.238281 180.789062 70.375 186.5 75.0625 C 189.4375 77.46875 191.96875 80.378906 194.730469 83.007812 C 198.816406 86.894531 199.675781 91.558594 197.796875 96.671875 C 196.210938 100.957031 194.222656 105.089844 192.472656 109.308594 C 189.128906 117.339844 187.195312 125.375 192.726562 133.308594 C 194.703125 136.125 197.007812 136.03125 199.925781 133.492188 C 196.765625 123.378906 199.40625 113.484375 202.742188 103.660156 C 203.230469 102.203125 203.617188 100.703125 204.257812 99.328125 C 207.59375 92.207031 205.558594 85.957031 201.238281 80.070312 C 199.878906 78.21875 198.339844 76.503906 196.953125 74.675781 C 193.671875 70.351562 191.109375 65.722656 190.460938 60.183594 C 189.65625 53.390625 188.671875 46.613281 187.644531 38.863281 Z M 185.75 204.140625 C 194.648438 207.921875 199.863281 203.480469 205.109375 198.753906 C 217.886719 187.265625 231.03125 185.539062 246.058594 193.671875 C 251.390625 196.566406 256.328125 200.207031 261.34375 203.660156 C 264.578125 205.878906 267.703125 207.605469 271.679688 204.773438 C 271.15625 203.699219 270.90625 202.453125 270.15625 201.765625 C 260.515625 192.945312 250.082031 185.316406 237.609375 180.9375 C 222.425781 175.605469 209.046875 180.164062 196.828125 189.121094 C 191.976562 192.679688 188.023438 197.40625 185.75 204.140625 Z M 117.761719 180.820312 C 119.136719 180.890625 120.652344 181.277344 122.03125 180.996094 C 127.65625 179.851562 133.265625 178.644531 138.824219 177.214844 C 156.3125 172.695312 172.726562 165.339844 188.875 157.476562 C 198.269531 152.914062 207.238281 153.128906 216.570312 156.921875 C 222.707031 159.410156 228.175781 162.949219 232.496094 167.90625 C 236.582031 172.601562 241.742188 173.972656 247.605469 174.839844 C 247.605469 173.445312 247.878906 172.578125 247.570312 172.054688 C 238.738281 157.300781 227.300781 146.421875 209.09375 144.332031 C 202.027344 143.527344 195.5 143.589844 188.867188 146.242188 C 180.6875 149.515625 172.625 152.835938 165.109375 157.617188 C 158.355469 161.902344 150.941406 165.144531 143.832031 168.882812 C 136.988281 172.480469 129.507812 174.160156 122.132812 176.175781 C 119.996094 176.757812 117.441406 177.089844 117.761719 180.820312 Z M 19.175781 204.253906 C 21.699219 203.273438 23.910156 203.101562 24.785156 201.941406 C 27.980469 197.679688 30.339844 192.773438 33.707031 188.671875 C 45.285156 174.597656 61.015625 169.128906 77.40625 178.160156 C 81.746094 180.550781 85.941406 183.234375 90.003906 186.074219 C 96.890625 190.886719 103.546875 196.039062 110.441406 200.835938 C 116.113281 204.773438 118.402344 204.859375 125.058594 202.136719 C 118.648438 195.394531 112.714844 188.402344 105.992188 182.273438 C 97.121094 174.1875 86.691406 168.566406 74.875 165.808594 C 64.484375 163.386719 54.382812 163.875 44.726562 168.921875 C 36.8125 173.058594 30.1875 178.847656 24.34375 185.429688 C 20.21875 190.097656 18.007812 195.78125 19.175781 204.253906 Z M 210.488281 339.738281 C 206.261719 339.738281 203.601562 339.613281 200.953125 339.753906 C 189.105469 340.378906 177.265625 341.339844 165.410156 341.664062 C 155.855469 341.917969 146.246094 341.835938 136.710938 341.183594 C 124.871094 340.371094 113.078125 338.769531 101.261719 337.648438 C 99.132812 337.445312 96.953125 337.902344 94.769531 338.058594 C 93.757812 342.878906 93.113281 346.933594 95.503906 351.15625 C 114.425781 359.132812 133.855469 364.269531 154.671875 361.804688 C 165.699219 360.496094 176.78125 359.445312 187.699219 357.515625 C 195.492188 356.132812 203.640625 355.34375 211.261719 350.460938 C 211.035156 347.320312 210.796875 344.039062 210.488281 339.738281 Z M 283.730469 215.257812 C 278.746094 213.089844 273.722656 213.207031 268.808594 213.160156 C 251.5625 212.984375 234.304688 212.828125 217.058594 212.976562 C 206.339844 213.066406 195.628906 214.027344 184.914062 214.027344 C 167.671875 214.042969 150.429688 213.648438 133.191406 213.300781 C 114.054688 212.90625 94.925781 212.199219 75.789062 211.9375 C 60.464844 211.722656 45.128906 211.683594 29.816406 212.125 C 22.695312 212.332031 15.421875 212.402344 7.9375 214.183594 C 6.136719 221.855469 7.542969 228.984375 9.0625 236.03125 C 10.339844 242.003906 11.761719 247.992188 13.671875 253.789062 C 16.914062 263.597656 20.304688 273.378906 24.21875 282.925781 C 25.921875 287.085938 28.671875 291.019531 31.648438 294.429688 C 47.117188 312.164062 66.820312 322.625 89.871094 326.421875 C 104.210938 328.78125 118.703125 330.335938 133.183594 331.707031 C 161.929688 334.429688 190.460938 333.460938 218.953125 327.777344 C 230.527344 325.460938 239.792969 320.339844 247.777344 312.496094 C 253.480469 306.894531 258.363281 300.433594 263.378906 294.175781 C 281.160156 271.976562 285.734375 246.003906 284.71875 218.484375 C 284.6875 217.75 284.285156 217.027344 283.730469 215.257812 Z M 167.015625 144.023438 C 161.171875 134.652344 163.324219 125.507812 167.230469 116.402344 C 168.894531 112.527344 170.660156 108.679688 171.996094 104.695312 C 173.878906 99.101562 173.667969 98.066406 171.277344 90.257812 C 168.414062 87.9375 164.964844 87.921875 161.496094 87.796875 C 150.777344 87.394531 140.0625 86.960938 129.351562 86.421875 C 123.023438 86.105469 121.566406 84.402344 121.738281 77.730469 C 121.777344 75.882812 122.308594 74.058594 122.652344 72.03125 C 133.183594 67.589844 144.1875 72.054688 155.289062 69.089844 C 154.847656 65.972656 154.394531 62.753906 153.921875 59.402344 C 142.988281 57.066406 133.253906 62.894531 123.472656 62.304688 C 122.511719 61.238281 121.675781 60.75 121.550781 60.121094 C 118.773438 46.421875 118.75 46.058594 132.492188 44.039062 C 138.917969 43.09375 145.246094 41.515625 151.605469 40.167969 C 152.707031 39.929688 153.9375 39.628906 154.78125 38.953125 C 164.398438 31.273438 176.414062 32.160156 187.511719 29.925781 C 190.242188 29.375 194.222656 30.109375 196.226562 31.859375 C 199.808594 35 203.335938 34.171875 206.980469 33.460938 C 225.414062 29.863281 243.933594 26.628906 262.179688 22.265625 C 277.113281 18.683594 292.210938 16.308594 307.324219 13.839844 C 323.960938 11.125 340.558594 8.191406 357.164062 5.304688 C 361.367188 4.578125 365.484375 4.191406 369.507812 6.550781 C 370.101562 10.738281 370.808594 14.855469 371.25 19 C 371.519531 21.515625 370.265625 23.605469 367.960938 24.507812 C 365.5 25.476562 362.851562 26.089844 360.238281 26.550781 C 345.140625 29.199219 330.011719 31.707031 314.914062 34.367188 C 293.417969 38.164062 271.953125 42.097656 250.453125 45.878906 C 233.847656 48.796875 217.21875 51.566406 200.613281 54.445312 C 199.910156 54.558594 199.273438 55.117188 198.300781 55.644531 C 198.785156 57.761719 199.027344 60.085938 199.847656 62.171875 C 202.925781 70.003906 205.125 71.179688 213.835938 70.800781 C 243.328125 69.546875 272.820312 67.90625 302.324219 67.332031 C 318 67.03125 333.71875 68.601562 349.410156 69.390625 C 354 69.617188 358.605469 69.910156 363.167969 70.429688 C 365.777344 70.730469 368.460938 71.226562 370.878906 72.214844 C 374.164062 73.5625 375.558594 76.308594 374.722656 79.667969 C 373.71875 83.707031 372.269531 87.628906 370.839844 92.132812 C 368.820312 92.132812 367.015625 92.230469 365.226562 92.109375 C 361.414062 91.851562 357.605469 91.441406 353.792969 91.164062 C 321.265625 88.726562 288.710938 87.929688 256.105469 88.609375 C 249.21875 88.75 242.300781 88.316406 235.433594 87.734375 C 228.886719 87.179688 222.519531 87.628906 215.988281 89.058594 C 213.589844 97.035156 211.390625 104.742188 208.945312 112.371094 C 206.332031 120.496094 206.578125 128.207031 211.910156 136.117188 C 213.488281 136.542969 215.632812 137.207031 217.816406 137.679688 C 226.746094 139.613281 234.40625 144.15625 240.378906 150.738281 C 248.851562 160.078125 257.371094 169.539062 261.511719 181.925781 C 262.210938 184.015625 263.402344 186.152344 264.941406 187.683594 C 269.265625 192 273.707031 196.246094 278.46875 200.0625 C 282.886719 203.605469 287.777344 206.570312 293.503906 210.507812 C 293.207031 209.808594 293.773438 210.507812 293.734375 211.171875 C 293.09375 222.636719 292.441406 234.113281 291.660156 245.570312 C 290.738281 259.195312 286.761719 272.148438 279.984375 283.753906 C 273.832031 294.265625 266.078125 303.898438 258.472656 313.484375 C 253.9375 319.203125 247.894531 323.257812 240.875 326.019531 C 233.453125 328.945312 226.375 332.734375 219.539062 335.960938 C 217.519531 341.050781 218.734375 345.578125 219.046875 350.144531 C 219.539062 357.453125 218.03125 359.898438 210.84375 361.78125 C 202.703125 363.90625 194.429688 365.742188 186.097656 366.855469 C 175.472656 368.277344 164.722656 368.804688 154.035156 369.804688 C 141.648438 370.957031 129.546875 369.773438 117.714844 365.851562 C 110.441406 363.445312 103.179688 360.945312 95.792969 358.925781 C 89.539062 357.222656 87.148438 353.277344 87.164062 347.140625 C 87.171875 343.34375 86.785156 339.542969 86.535156 335.140625 C 83.789062 333.855469 81.152344 332.363281 78.339844 331.34375 C 63.199219 325.832031 48.394531 319.652344 35.015625 310.460938 C 25.605469 304 18.425781 295.746094 14.371094 285.015625 C 11.785156 278.207031 9.488281 271.289062 7.148438 264.394531 C 2.3125 250.082031 1.53125 235.125 0.117188 220.261719 C -0.632812 212.292969 2.167969 206.886719 10.121094 204.585938 C 10.832031 204.378906 11.453125 203.835938 12.109375 203.441406 C 12.425781 202.761719 13.046875 202.066406 13.007812 201.398438 C 11.4375 175.773438 45.414062 153.035156 69.875 157.230469 C 79.417969 158.863281 88.726562 161.136719 96.90625 166.390625 C 103.296875 170.5 110.03125 170.886719 116.769531 168.78125 C 133.632812 163.519531 150.066406 157.167969 164.628906 146.839844 C 165.226562 146.414062 165.613281 145.703125 167.015625 144.023438 " fill-opacity="1" fill-rule="nonzero"/></g></svg>