<?xml version="1.0" encoding="UTF-8"?><svg xmlns="http://www.w3.org/2000/svg" xmlns:xlink="http://www.w3.org/1999/xlink" contentScriptType="text/ecmascript" width="375" zoomAndPan="magnify" contentStyleType="text/css" viewBox="0 0 375 374.999991" height="374.999991" preserveAspectRatio="xMidYMid meet" version="1.0"><defs><clipPath id="clip-0"><path d="M 132 118.613281 L 246 118.613281 L 246 222.113281 L 132 222.113281 Z M 132 118.613281 " clip-rule="nonzero"/></clipPath></defs><path fill="rgb(55.688477%, 36.468506%, 20.779419%)" d="M 135.558594 199.632812 C 135.558594 199.632812 149.929688 171.535156 185.851562 172.59375 C 230.226562 173.648438 231.917969 193.296875 231.917969 193.296875 L 270.796875 158.4375 L 200.855469 118.71875 L 150.5625 122.734375 L 122.246094 144.070312 L 124.992188 177.027344 Z M 135.558594 199.632812 " fill-opacity="1" fill-rule="evenodd"/><path fill="rgb(26.269531%, 19.60907%, 19.219971%)" d="M 132.8125 200.902344 C 120.34375 173.648438 122.035156 172.804688 119.289062 142.804688 L 149.507812 119.988281 L 201.488281 115.761719 L 272.066406 156.113281 L 272.699219 160.761719 L 234.03125 195.410156 L 229.382812 193.507812 L 229.382812 192.875 C 228.746094 191.183594 227.902344 189.703125 226.632812 188.4375 C 224.519531 185.691406 221.984375 183.578125 219.027344 182.097656 C 216.914062 181.042969 214.800781 180.199219 212.6875 179.351562 C 205.292969 176.816406 197.472656 175.550781 189.867188 175.339844 C 184.371094 175.128906 178.667969 175.339844 173.171875 176.183594 C 158.59375 178.929688 145.703125 187.804688 138.09375 200.902344 Z M 151.617188 125.480469 L 124.992188 145.550781 L 127.742188 176.394531 L 135.769531 193.71875 L 136.617188 192.449219 L 142.109375 186.535156 C 154.578125 173.859375 172.328125 167.523438 190.078125 169.632812 C 199.375 170.269531 208.460938 172.167969 217.125 175.128906 L 219.871094 176.394531 C 225.367188 178.929688 230.015625 182.734375 233.183594 187.804688 L 233.183594 188.015625 L 265.9375 159.070312 L 249.667969 149.777344 L 200.429688 121.464844 L 151.832031 125.480469 Z M 151.617188 125.480469 " fill-opacity="1" fill-rule="nonzero"/><path fill="rgb(55.688477%, 36.468506%, 20.779419%)" d="M 20.183594 222.871094 C 20.183594 222.871094 14.691406 300.617188 124.992188 318.785156 C 235.296875 336.53125 322.144531 320.6875 348.347656 219.28125 C 374.761719 118.085938 261.710938 220.972656 261.710938 220.972656 L 170.003906 252.027344 L 62.445312 194.351562 L 34.765625 190.761719 Z M 20.183594 222.871094 " fill-opacity="1" fill-rule="evenodd"/><path fill="rgb(93.728638%, 60.778809%, 74.119568%)" d="M 13.84375 188.648438 C 13.84375 188.648438 18.28125 173.648438 16.59375 159.703125 C 15.324219 145.339844 22.71875 80.691406 105.976562 49.214844 C 180.992188 22.171875 264.882812 37.808594 324.894531 90.410156 C 358.28125 122.3125 355.53125 148.71875 354.6875 161.183594 C 354.054688 174.070312 355.957031 209.140625 355.957031 209.140625 C 355.957031 209.140625 356.589844 224.984375 346.023438 215.6875 C 335.457031 206.605469 331.230469 204.28125 318.554688 224.140625 C 305.664062 244.210938 300.382812 271.886719 286.011719 273.363281 C 271.644531 275.054688 269.742188 273.363281 260.867188 276.957031 C 252.203125 280.757812 241.847656 299.773438 212.265625 288.574219 C 182.679688 277.589844 170.003906 279.492188 158.167969 283.714844 C 146.125 288.152344 129.644531 283.925781 123.09375 271.039062 C 116.964844 257.730469 105.554688 263.644531 96.042969 264.28125 C 85.902344 264.492188 79.984375 267.238281 65.40625 240.828125 C 50.824219 214.632812 42.371094 224.984375 27.792969 222.449219 C 2.011719 217.800781 13.84375 188.648438 13.84375 188.648438 Z M 144.855469 167.945312 C 144.855469 167.945312 145.914062 137.734375 160.28125 149.140625 C 174.863281 160.761719 184.371094 163.085938 190.921875 153.578125 C 197.472656 144.070312 199.375 145.972656 203.8125 154.632812 C 208.25 162.875 219.660156 162.875 225.578125 160.761719 C 231.917969 158.015625 235.71875 174.492188 225.578125 182.097656 C 215.855469 189.703125 196.417969 202.167969 173.171875 197.097656 C 150.5625 192.238281 142.957031 168.578125 144.855469 167.945312 Z M 144.855469 167.945312 " fill-opacity="1" fill-rule="evenodd"/><path fill="rgb(90.979004%, 43.919373%, 63.139343%)" d="M 145.703125 175.339844 C 145.703125 175.339844 89.492188 146.605469 135.347656 124.636719 C 182.257812 102.242188 206.980469 111.113281 218.605469 114.917969 C 250.722656 125.691406 282.84375 159.070312 234.453125 177.875 C 232.972656 178.296875 232.128906 164.140625 228.324219 161.816406 C 222.40625 158.226562 212.898438 164.5625 208.039062 159.703125 C 202.542969 154.210938 205.292969 150.621094 199.796875 148.507812 C 190.921875 144.707031 183.527344 162.027344 179.511719 159.917969 C 161.128906 151.675781 166.410156 151.253906 156.269531 149.5625 C 141.054688 146.816406 145.703125 175.339844 145.703125 175.339844 Z M 186.0625 51.539062 C 195.148438 51.539062 204.234375 51.960938 213.109375 53.019531 C 238.257812 56.398438 262.34375 65.269531 283.6875 79.214844 C 300.59375 90.621094 314.539062 106.042969 324.257812 124.214844 L 316.652344 128.226562 L 315.59375 126.324219 L 314.75 124.425781 C 308.199219 112.804688 299.535156 102.453125 289.394531 94.003906 C 266.359375 75.621094 238.46875 64.425781 209.09375 61.46875 C 190.078125 58.933594 170.847656 59.144531 151.832031 62.3125 C 131.542969 65.691406 111.679688 71.820312 93.296875 81.117188 C 85.902344 84.917969 78.929688 89.355469 72.378906 94.636719 L 68.363281 98.015625 C 58.429688 106.679688 51.246094 117.875 47.230469 130.339844 L 38.992188 127.804688 C 44.484375 111.113281 55.050781 96.539062 69.417969 86.1875 C 80.832031 77.523438 93.507812 70.550781 106.820312 65.480469 C 127.53125 57.453125 149.292969 52.59375 171.480469 51.75 L 181.414062 51.539062 Z M 186.0625 51.539062 " fill-opacity="1" fill-rule="evenodd"/><path fill="rgb(96.469116%, 78.819275%, 86.268616%)" d="M 50.402344 176.605469 L 52.726562 182.945312 C 57.796875 194.773438 65.828125 205.125 76.179688 212.730469 C 91.183594 224.140625 108.300781 232.378906 126.472656 237.449219 C 157.535156 246.957031 190.289062 249.070312 222.40625 243.574219 C 248.609375 239.140625 273.332031 227.941406 293.832031 211.042969 C 304.394531 201.957031 313.269531 190.761719 319.609375 178.296875 L 327.21875 182.097656 C 323.203125 190.339844 318.132812 197.945312 312.003906 204.914062 C 302.917969 215.476562 292.140625 224.351562 280.09375 231.535156 C 255.160156 246.324219 226.632812 254.351562 197.683594 254.773438 C 172.328125 256.25 146.757812 252.871094 122.667969 245.265625 C 106.1875 239.984375 90.761719 232.589844 76.394531 223.082031 C 62.65625 214 51.882812 201.113281 45.117188 186.113281 C 43.640625 183.367188 42.792969 180.832031 42.371094 178.296875 L 50.402344 176.183594 Z M 187.117188 105.199219 C 196.628906 105.410156 205.925781 106.042969 215.222656 107.3125 C 228.535156 109.636719 240.792969 115.339844 251.144531 124.214844 L 255.792969 128.648438 C 260.230469 134.140625 263.824219 140.691406 265.726562 147.664062 C 266.78125 151.253906 267.417969 155.269531 266.78125 159.070312 C 266.570312 163.085938 264.667969 166.675781 261.921875 169.421875 C 260.019531 170.902344 257.90625 171.957031 255.371094 172.167969 L 254.527344 163.929688 L 255.371094 163.929688 C 256.429688 163.507812 257.0625 162.238281 257.695312 161.183594 L 257.695312 160.761719 C 257.90625 159.703125 258.332031 158.648438 258.332031 157.382812 L 258.117188 152.097656 C 257.484375 148.507812 256.21875 144.917969 254.316406 141.746094 C 250.722656 135.410156 245.652344 130.128906 239.734375 126.113281 C 228.957031 118.929688 216.703125 114.917969 203.8125 114.285156 C 199.164062 113.859375 194.515625 113.648438 189.867188 113.859375 C 176.554688 113.648438 163.242188 115.128906 150.140625 117.875 C 146.96875 118.71875 144.011719 119.988281 141.054688 121.464844 C 135.558594 123.789062 130.910156 127.382812 127.953125 132.242188 C 126.683594 134.140625 125.839844 136.464844 125.207031 138.789062 C 124.359375 142.382812 124.359375 145.972656 125.207031 149.5625 L 126.472656 152.3125 L 118.230469 155.480469 L 118.230469 154.632812 C 116.117188 148.507812 115.90625 141.746094 117.386719 135.199219 C 118.65625 130.761719 120.980469 126.535156 124.148438 122.945312 C 130.488281 116.183594 138.730469 111.539062 147.816406 109.425781 C 152.042969 108.15625 156.269531 107.3125 160.492188 106.679688 C 167.890625 105.621094 175.285156 105.199219 182.679688 105.410156 L 186.90625 105.410156 Z M 187.117188 105.199219 " fill-opacity="1" fill-rule="evenodd"/><path fill="rgb(26.269531%, 19.60907%, 19.219971%)" d="M 17.4375 221.605469 L 17.4375 221.394531 C 14.480469 219.492188 12.15625 216.957031 10.675781 213.789062 C 8.140625 208.296875 7.507812 202.167969 8.773438 196.253906 C 9.195312 193.296875 10.042969 190.339844 11.097656 187.589844 L 11.519531 185.902344 C 13.421875 177.875 14.269531 169.632812 14.054688 161.605469 L 13.84375 158.859375 L 13.84375 157.804688 C 14.480469 133.507812 23.355469 110.269531 38.992188 91.890625 C 48.710938 80.269531 60.121094 70.128906 73.011719 62.3125 C 93.507812 49.425781 116.753906 40.554688 140.84375 36.75 C 153.308594 34.425781 165.988281 33.371094 178.667969 33.371094 L 180.570312 33.371094 C 205.503906 33.582031 230.226562 37.808594 253.894531 45.835938 C 278.828125 54.496094 302.28125 67.804688 322.570312 84.707031 L 328.90625 90.832031 C 340.953125 102.242188 350.039062 116.609375 355.109375 132.453125 C 357.644531 140.691406 358.492188 149.140625 357.855469 157.804688 L 357.644531 162.875 L 357.644531 165.621094 C 357.433594 180.199219 357.855469 194.773438 358.914062 209.140625 L 358.914062 209.984375 L 358.703125 212.097656 L 358.703125 213.578125 L 358.492188 214.632812 C 358.070312 216.957031 356.800781 218.859375 354.898438 220.335938 C 354.265625 220.757812 353.632812 221.183594 352.785156 221.394531 L 350.882812 221.394531 C 347.082031 234.492188 342.007812 247.167969 335.667969 259.421875 C 323.203125 281.601562 304.394531 299.558594 281.785156 310.96875 C 258.542969 321.953125 233.183594 327.660156 207.40625 327.660156 C 188.175781 328.503906 168.945312 327.445312 149.929688 324.910156 C 138.519531 323.433594 126.894531 321.742188 115.484375 319.628906 C 107.457031 318.152344 99.636719 316.039062 92.03125 313.292969 C 78.292969 308.644531 65.195312 302.519531 53.78125 293.433594 C 31.171875 276.957031 17.859375 250.96875 17.4375 223.082031 Z M 345.390625 219.070312 C 344.96875 218.648438 344.757812 218.4375 344.332031 218.222656 L 342.21875 216.324219 C 340.953125 215.265625 339.683594 214.210938 338.417969 213.367188 L 337.570312 212.730469 C 336.515625 212.097656 335.246094 211.675781 333.980469 211.675781 L 332.5 212.097656 C 331.445312 212.730469 330.597656 213.367188 329.964844 214 L 327.21875 216.746094 L 323.835938 221.394531 C 318.976562 228.152344 314.960938 235.335938 311.792969 243.152344 L 307.777344 252.238281 L 306.296875 254.984375 C 304.605469 258.363281 302.917969 261.746094 301.015625 265.125 L 299.535156 267.027344 C 297 270.40625 294.253906 273.785156 289.816406 275.265625 C 288.757812 275.6875 287.703125 276.109375 286.644531 276.109375 L 284.957031 276.53125 L 278.195312 276.957031 L 272.277344 277.167969 L 270.375 277.167969 C 266.992188 277.589844 263.824219 278.644531 260.867188 280.335938 L 257.273438 282.660156 L 254.105469 285.40625 C 252.203125 286.671875 250.511719 287.941406 248.609375 289.207031 C 243.75 292.378906 238.257812 294.277344 232.339844 294.703125 C 228.957031 295.125 225.367188 294.703125 221.984375 294.277344 L 213.957031 292.167969 L 208.460938 290.265625 L 205.714844 289.417969 C 199.796875 287.097656 193.457031 285.40625 187.117188 283.925781 C 179.089844 282.660156 170.636719 282.871094 162.605469 285.195312 C 161.761719 285.40625 160.917969 285.828125 160.070312 286.25 L 158.167969 286.671875 C 146.96875 290.265625 134.714844 287.519531 126.050781 279.703125 C 124.359375 278.011719 122.882812 276.320312 121.824219 274.207031 L 120.980469 272.941406 C 120.980469 272.308594 120.34375 271.886719 120.132812 271.460938 L 119.921875 270.828125 C 119.078125 269.5625 118.230469 268.714844 117.175781 267.871094 C 116.753906 267.449219 116.332031 267.027344 115.695312 266.605469 C 113.371094 265.546875 110.414062 265.125 107.667969 265.546875 L 105.976562 265.546875 L 103.652344 266.179688 L 100.269531 266.605469 L 99.003906 266.605469 L 96.890625 267.027344 L 94.988281 267.027344 L 91.394531 267.238281 L 87.804688 267.238281 C 86.535156 267.027344 85.054688 266.816406 83.789062 266.390625 C 80.195312 264.914062 77.027344 262.589844 74.492188 259.632812 C 71.109375 255.195312 67.730469 250.546875 64.769531 245.898438 L 62.023438 240.40625 L 60.96875 239.140625 C 58.855469 235.757812 56.53125 232.378906 53.78125 229.632812 C 52.09375 228.152344 50.191406 227.097656 48.289062 226.253906 C 47.445312 226.042969 46.597656 225.617188 45.753906 225.40625 C 44.0625 225.40625 42.371094 225.40625 40.679688 225.40625 L 30.960938 225.40625 C 28.636719 225.40625 26.3125 224.984375 24.199219 224.351562 L 23.355469 224.140625 L 23.355469 230.898438 L 25.46875 241.675781 C 30.328125 260.898438 41.949219 277.800781 58.007812 289.417969 C 68.996094 297.660156 81.042969 303.574219 93.929688 308.222656 C 106.1875 312.449219 119.078125 315.195312 131.96875 316.882812 C 152.253906 319.839844 172.539062 321.53125 192.824219 322.164062 C 204.023438 322.375 215.433594 321.742188 226.632812 320.6875 C 247.765625 318.363281 268.261719 312.023438 286.855469 301.882812 C 303.550781 292.589844 317.496094 279.066406 327.640625 262.800781 C 336.09375 249.28125 342.21875 234.492188 346.023438 219.070312 Z M 347.082031 212.941406 C 353.207031 219.492188 351.941406 172.378906 351.941406 169.632812 L 351.941406 161.816406 L 352.152344 157.382812 C 352.363281 150.199219 351.730469 143.015625 350.25 136.042969 C 348.769531 129.707031 346.234375 123.578125 343.066406 117.875 C 335.035156 105.621094 325.527344 94.636719 314.328125 85.339844 C 254.105469 38.863281 174.230469 26.820312 103.019531 53.652344 C 94.144531 57.242188 85.480469 61.46875 77.238281 66.328125 C 61.601562 75.832031 47.867188 88.507812 37.089844 103.507812 C 27.582031 118.085938 21.664062 134.566406 19.550781 151.675781 L 19.550781 162.027344 C 19.761719 167.523438 19.339844 173.015625 18.707031 178.296875 C 18.28125 181.886719 17.4375 185.269531 16.59375 188.648438 L 16.59375 189.703125 L 15.957031 190.761719 L 15.535156 192.238281 C 14.691406 195.410156 13.84375 199 13.84375 202.378906 C 13.84375 204.28125 13.84375 206.605469 14.691406 208.71875 C 15.324219 210.617188 16.167969 212.519531 17.4375 214 C 18.070312 214.84375 18.917969 215.6875 19.761719 216.324219 L 19.761719 216.746094 L 25.257812 219.070312 L 26.101562 219.070312 L 27.15625 219.492188 C 29.90625 220.125 32.652344 220.335938 35.1875 220.125 L 36.03125 220.125 L 51.035156 221.183594 L 51.457031 221.394531 C 55.683594 223.292969 58.855469 226.253906 61.601562 229.632812 L 62.65625 231.535156 C 64.136719 233.433594 65.40625 235.546875 66.671875 237.660156 L 69.207031 242.097656 L 70.898438 244.632812 C 73.222656 248.644531 75.96875 252.449219 78.929688 256.039062 C 80.832031 257.941406 82.945312 259.84375 85.691406 260.898438 L 88.648438 261.535156 C 89.707031 261.535156 90.761719 261.535156 91.605469 261.535156 L 96.46875 261.535156 L 104.707031 260.265625 L 106.398438 260.265625 L 110.835938 259.632812 C 114.21875 259.632812 117.386719 260.6875 120.132812 262.589844 L 122.882812 265.125 L 124.992188 268.292969 L 126.050781 270.40625 L 126.683594 271.25 L 129.429688 275.054688 C 134.925781 280.757812 142.742188 283.503906 150.5625 282.660156 C 152.042969 282.660156 153.945312 282.238281 155.632812 281.601562 C 156.691406 281.601562 157.746094 280.96875 158.804688 280.546875 C 160.917969 279.914062 163.03125 279.277344 165.144531 278.855469 C 173.171875 277.378906 181.203125 277.378906 189.230469 278.855469 C 197.050781 280.335938 204.65625 282.449219 212.054688 285.40625 L 214.800781 286.460938 L 215.855469 287.097656 C 222.40625 288.996094 229.167969 289.632812 235.929688 288.574219 C 239.101562 287.730469 242.058594 286.460938 244.804688 284.773438 L 249.457031 281.8125 L 254.316406 277.800781 L 255.371094 276.957031 L 258.753906 275.054688 L 261.921875 273.785156 C 265.726562 272.308594 269.742188 271.460938 273.757812 271.460938 L 277.980469 271.460938 L 279.882812 271.25 L 285.167969 270.828125 L 286.011719 270.828125 L 287.492188 270.195312 C 288.757812 269.984375 290.027344 268.925781 291.507812 268.082031 C 293.617188 265.96875 295.519531 263.644531 297 260.898438 C 298.269531 259 299.324219 256.675781 300.382812 254.5625 L 303.128906 249.070312 L 306.929688 239.773438 C 310.3125 233.011719 313.90625 226.464844 317.707031 220.125 C 319.1875 218.222656 320.667969 216.324219 322.144531 214.421875 L 323.414062 212.519531 C 323.835938 212.097656 324.257812 211.464844 324.894531 211.042969 C 326.792969 208.71875 329.542969 207.027344 332.710938 206.183594 C 333.769531 205.972656 334.824219 205.972656 335.882812 206.183594 C 337.78125 206.605469 339.683594 207.238281 341.375 208.507812 L 346.445312 212.519531 Z M 154.578125 143.648438 L 155.84375 143.859375 C 157.324219 143.859375 158.59375 144.707031 159.4375 145.339844 L 161.550781 146.605469 L 164.296875 148.507812 C 167.042969 150.410156 169.792969 152.3125 172.75 154 L 174.441406 155.058594 C 174.863281 155.269531 175.496094 155.480469 175.917969 155.480469 L 176.976562 156.113281 C 179.089844 156.746094 181.414062 156.746094 183.527344 156.113281 C 184.160156 156.113281 184.371094 156.113281 185.007812 155.480469 C 186.0625 154.847656 186.90625 154 187.542969 152.945312 C 188.386719 152.3125 189.019531 151.464844 189.230469 150.621094 L 190.289062 149.5625 C 191.132812 148.507812 191.980469 147.453125 193.035156 146.605469 C 193.667969 145.972656 194.515625 145.339844 195.148438 144.917969 C 195.992188 144.492188 197.050781 144.492188 197.894531 144.492188 L 198.953125 144.707031 C 200.855469 145.339844 202.332031 146.605469 203.390625 148.296875 L 203.8125 149.140625 C 203.8125 149.5625 204.445312 149.777344 204.65625 150.410156 C 204.65625 151.042969 205.292969 151.253906 205.503906 151.675781 L 206.558594 153.578125 L 206.980469 154.421875 C 207.195312 155.058594 207.828125 155.691406 208.25 156.113281 C 212.265625 159.070312 217.546875 160.128906 222.40625 158.859375 L 223.886719 158.226562 L 224.730469 158.015625 L 225.15625 158.015625 C 226 157.59375 227.269531 157.59375 228.324219 157.804688 L 229.382812 158.015625 C 231.28125 159.070312 232.972656 160.972656 233.394531 163.507812 L 234.03125 164.140625 L 234.242188 165.832031 C 234.453125 167.523438 234.875 169 234.453125 170.480469 C 234.453125 174.28125 233.183594 177.875 231.070312 180.832031 C 230.226562 181.675781 229.382812 182.734375 228.324219 183.367188 L 227.054688 184.84375 C 222.617188 188.015625 217.757812 190.972656 212.898438 193.507812 C 204.234375 197.945312 194.726562 200.691406 185.007812 201.113281 C 178.878906 201.113281 172.960938 200.265625 167.257812 198.367188 C 156.902344 194.351562 148.238281 186.113281 143.800781 175.972656 L 142.957031 174.070312 C 142.53125 172.59375 142.109375 171.324219 141.898438 169.84375 L 141.898438 167.308594 L 142.109375 167.308594 L 142.109375 164.773438 L 142.320312 162.875 L 143.167969 158.859375 L 143.800781 155.902344 C 144.011719 154.632812 144.644531 153.367188 145.070312 152.097656 L 145.28125 150.621094 C 146.757812 147.875 148.238281 145.339844 150.984375 144.070312 L 152.042969 143.859375 C 152.675781 143.648438 153.308594 143.4375 153.945312 143.4375 L 154.578125 143.4375 Z M 147.605469 170.269531 C 149.71875 176.816406 153.730469 182.734375 159.226562 187.167969 C 164.507812 191.816406 171.269531 194.5625 178.242188 195.195312 C 187.117188 196.042969 196.207031 194.5625 204.445312 191.394531 C 210.996094 188.648438 217.125 185.269531 222.617188 181.042969 L 224.730469 179.140625 C 225.789062 178.296875 226.632812 177.449219 227.269531 176.394531 C 228.957031 173.226562 229.59375 169.632812 228.535156 166.042969 C 228.324219 165.199219 228.113281 164.351562 227.480469 163.71875 L 227.269531 163.507812 L 225.789062 163.507812 C 223.886719 164.140625 221.984375 164.5625 219.871094 164.773438 C 214.800781 165.410156 209.730469 163.929688 205.503906 160.972656 C 203.8125 159.703125 202.542969 158.226562 201.488281 156.324219 L 200.21875 153.578125 C 199.796875 152.945312 199.164062 152.097656 198.742188 151.464844 C 198.53125 151.042969 198.105469 150.621094 197.683594 150.199219 C 197.472656 150.199219 197.050781 150.410156 196.839844 150.621094 L 195.78125 151.675781 L 193.667969 154.421875 C 193.667969 155.058594 193.035156 155.480469 192.613281 156.113281 L 191.980469 156.535156 C 190.921875 158.015625 189.867188 159.070312 188.386719 160.128906 C 187.117188 161.183594 185.429688 161.816406 183.949219 162.027344 C 179.511719 162.664062 174.863281 161.816406 171.058594 159.28125 C 168.101562 158.015625 165.355469 156.324219 162.605469 154.421875 L 158.382812 151.253906 L 157.746094 150.621094 L 157.324219 150.410156 C 156.691406 149.988281 156.269531 149.777344 155.632812 149.5625 L 154.367188 149.5625 C 153.308594 149.5625 152.464844 150.410156 151.617188 151.253906 C 150.984375 152.097656 150.5625 152.945312 150.140625 154 C 149.507812 156.113281 148.871094 158.4375 148.660156 160.761719 C 148.238281 162.875 147.816406 165.199219 147.816406 167.523438 L 147.816406 170.269531 Z M 147.605469 170.269531 " fill-opacity="1" fill-rule="evenodd"/><path fill="rgb(100%, 91.758728%, 94.898987%)" d="M 159.375 120.695312 C 191.449219 120.753906 189.125 150.9375 189.125 150.9375 C 189.125 150.9375 194.769531 121.203125 225.738281 129.585938 C 256.710938 137.964844 250.726562 195.609375 179.929688 220.003906 C 117.992188 177.828125 127.300781 120.625 159.375 120.695312 " fill-opacity="1" fill-rule="nonzero"/><g clip-path="url(#clip-0)"><path fill="rgb(26.269531%, 19.60907%, 19.219971%)" d="M 225.207031 131.554688 C 216.335938 129.15625 208.839844 129.808594 202.941406 133.503906 C 193.527344 139.402344 191.148438 151.203125 191.125 151.320312 C 190.917969 152.386719 189.929688 153.101562 188.847656 152.960938 C 187.785156 152.8125 187.015625 151.855469 187.09375 150.773438 C 187.105469 150.597656 188.289062 133.074219 174.28125 125.890625 C 170.21875 123.808594 165.207031 122.75 159.367188 122.730469 C 149.210938 122.714844 141.191406 129.082031 137.914062 139.757812 C 131.730469 159.84375 142.457031 191.660156 180.234375 217.738281 C 223.269531 202.59375 240.09375 175.71875 241.402344 157.203125 C 242.183594 146.214844 237.925781 137.5 229.714844 133.285156 C 228.320312 132.570312 226.800781 131.988281 225.207031 131.554688 Z M 178.789062 221.699219 C 138.609375 194.335938 127.347656 160.21875 134.011719 138.550781 C 137.847656 126.066406 147.335938 118.621094 159.382812 118.640625 C 165.867188 118.65625 171.503906 119.875 176.132812 122.25 C 185.34375 126.984375 188.972656 135.222656 190.363281 141.699219 C 192.429688 137.726562 195.699219 133.222656 200.742188 130.054688 C 207.65625 125.71875 216.242188 124.886719 226.273438 127.605469 C 228.136719 128.109375 229.917969 128.800781 231.574219 129.652344 C 241.164062 134.570312 246.363281 144.980469 245.472656 157.496094 C 244.0625 177.394531 226.21875 206.210938 180.59375 221.9375 C 180.066406 222.125 179.492188 222.074219 179.003906 221.824219 C 178.9375 221.789062 178.859375 221.746094 178.789062 221.699219 " fill-opacity="1" fill-rule="nonzero"/></g></svg>